<?xml version="1.0" encoding="UTF-8" standalone="no"?>
<!-- Created with Vectornator (http://vectornator.io/) -->

<svg
   strokeLinecap="round"
   strokeLinejoin="round"
   strokeMiterlimit="10"
   clipRule="evenodd"
   viewBox="0 0 180 180"
   version="1.1"
   id="svg273"
   sodipodi:docname="backery.svg"
   width="180"
   height="180"
   inkscape:version="1.2.1 (9c6d41e, 2022-07-14)"
   xmlns:inkscape="http://www.inkscape.org/namespaces/inkscape"
   xmlns:sodipodi="http://sodipodi.sourceforge.net/DTD/sodipodi-0.dtd"
   xmlns="http://www.w3.org/2000/svg"
   xmlns:svg="http://www.w3.org/2000/svg">
  <defs
     id="defs277" />
  <sodipodi:namedview
     id="namedview275"
     pagecolor="#505050"
     bordercolor="#ffffff"
     borderopacity="1"
     inkscape:showpageshadow="0"
     inkscape:pageopacity="0"
     inkscape:pagecheckerboard="1"
     inkscape:deskcolor="#505050"
     showgrid="false"
     inkscape:zoom="2.2250293"
     inkscape:cx="127.63877"
     inkscape:cy="147.18907"
     inkscape:window-width="1728"
     inkscape:window-height="991"
     inkscape:window-x="0"
     inkscape:window-y="117"
     inkscape:window-maximized="0"
     inkscape:current-layer="svg273" />
  <clipPath
     id="ArtboardFrame">
    <path
       d="M 0,0 H 150 V 150 H 0 Z"
       id="path132" />
  </clipPath>
  <g
     clipPath="url(#ArtboardFrame)"
     id="g271"
     transform="matrix(1.2173235,0,0,1.2173235,-0.99470885,-0.99470885)"
     style="stroke:none">
    <path
       d="m 10.7,62.97 a 3.363,3.363 0 1 0 6.725,0 3.363,3.363 0 0 0 -6.726,0 z m 3.362,-2.546 a 2.546,2.546 0 1 1 0,5.092 2.546,2.546 0 0 1 0,-5.092 z"
       id="path135"
       style="stroke:none" />
    <path
       d="M 22.318,54.716 A 11.675,11.675 0 0 0 2.641,65.4 11.677,11.677 0 0 0 22.318,71.226 c 4.56,-4.558 4.56,-11.95 0,-16.508 z M 6.385,55.294 a 10.859,10.859 0 0 1 18.238,10.211 2.49,2.49 0 0 0 -1.682,0.762 c -0.542,0.551 -0.59,1.049 -0.628,1.45 -0.038,0.4 -0.062,0.693 -0.612,1.113 -0.226,0.172 -0.673,0.192 -1.15,0.211 -0.534,0.023 -1.14,0.048 -1.655,0.309 -0.417,0.21 -0.737,0.608 -1.046,0.993 -0.327,0.406 -0.665,0.826 -1.052,0.925 -0.326,0.084 -0.772,-0.103 -1.244,-0.3 -0.471,-0.199 -0.973,-0.409 -1.492,-0.409 -0.518,0 -1.009,0.207 -1.489,0.407 -0.48,0.2 -0.918,0.384 -1.244,0.301 C 10.942,71.168 10.604,70.748 10.278,70.342 9.968,69.957 9.648,69.559 9.231,69.349 8.717,69.089 8.111,69.063 7.576,69.04 7.101,69.02 6.652,69.001 6.426,68.829 5.847,68.389 5.815,68.114 5.764,67.699 5.719,67.323 5.663,66.856 5.207,66.296 4.569,65.512 3.862,65.143 3.395,65.003 3.268,64.333 3.205,63.653 3.205,62.97 a 10.784,10.784 0 0 1 3.18,-7.676 z M 21.741,70.647 A 10.866,10.866 0 0 1 3.629,65.987 c 0.364,0.214 0.684,0.494 0.945,0.826 0.306,0.377 0.34,0.658 0.38,0.984 0.058,0.484 0.124,1.034 0.98,1.681 0.429,0.327 1.028,0.353 1.608,0.377 0.475,0.02 0.965,0.041 1.322,0.221 0.26,0.132 0.511,0.445 0.777,0.776 0.392,0.487 0.836,1.039 1.487,1.206 0.591,0.15 1.186,-0.097 1.762,-0.34 0.404,-0.167 0.82,-0.342 1.172,-0.342 0.353,0 0.769,0.175 1.174,0.343 0.453,0.192 0.919,0.385 1.385,0.385 0.127,0 0.254,-0.017 0.377,-0.049 0.65,-0.166 1.094,-0.72 1.485,-1.205 0.267,-0.331 0.519,-0.644 0.778,-0.775 0.357,-0.18 0.848,-0.201 1.322,-0.222 0.58,-0.024 1.18,-0.05 1.61,-0.376 0.837,-0.637 0.892,-1.22 0.937,-1.687 0.033,-0.353 0.057,-0.609 0.396,-0.953 0.233,-0.242 0.531,-0.41 0.858,-0.485 a 10.812,10.812 0 0 1 -2.643,4.295 z"
       id="path137"
       style="stroke:none" />
    <path
       d="m 18.833,61.56 a 1.943,1.943 0 0 0 2.708,-0.456 0.40843757,0.40843757 0 1 0 -0.666,-0.473 1.127,1.127 0 0 1 -1.569,0.264 0.40803002,0.40803002 0 0 0 -0.473,0.665 z m -5.347,5.802 a 0.408,0.408 0 0 0 -0.57,0.097 1.126,1.126 0 0 1 -1.569,0.263 0.40872729,0.40872729 0 0 0 -0.474,0.666 1.943,1.943 0 0 0 2.709,-0.456 0.408,0.408 0 0 0 -0.096,-0.57 z m 4.783,-2.415 a 0.409,0.409 0 1 0 0.099,0.809 1.126,1.126 0 0 1 1.253,0.98 0.40801379,0.40801379 0 1 0 0.81,-0.099 1.945,1.945 0 0 0 -2.162,-1.69 z m -2.273,3.393 a 1.117,1.117 0 0 1 0.315,-0.801 0.40842166,0.40842166 0 1 0 -0.588,-0.567 c -0.744,0.771 -0.723,2 0.049,2.745 A 0.408,0.408 0 1 0 16.338,69.13 1.12,1.12 0 0 1 15.996,68.34 Z M 8.313,65.367 A 0.40842166,0.40842166 0 1 0 7.725,64.8 c -0.744,0.772 -0.722,2 0.048,2.746 A 0.41,0.41 0 1 0 8.341,66.956 1.126,1.126 0 0 1 8.313,65.367 Z M 5.733,63.475 A 0.40820889,0.40820889 0 1 0 5.91,62.678 1.126,1.126 0 0 1 5.055,61.337 0.40820889,0.40820889 0 1 0 4.258,61.16 1.944,1.944 0 0 0 5.733,63.476 Z M 6.55,58.624 A 1.943,1.943 0 0 0 8.286,56.452 0.40819848,0.40819848 0 1 0 7.476,56.554 1.126,1.126 0 0 1 6.5,57.81 0.408,0.408 0 0 0 6.548,58.624 h 0.003 z m 14.24,12.014 a 0.168,0.168 0 0 0 -0.235,0.034 c -0.605,0.803 -3.118,1.979 -4.074,2.021 a 0.16803645,0.16803645 0 0 0 0.007,0.336 h 0.008 c 0.973,-0.042 3.609,-1.2 4.328,-2.155 A 0.169,0.169 0 0 0 20.79,70.638 Z m 0.286,-11.613 a 0.408,0.408 0 0 0 0.377,-0.565 1.126,1.126 0 0 1 0.608,-1.47 0.40846328,0.40846328 0 0 0 -0.312,-0.755 1.944,1.944 0 0 0 -1.05,2.538 0.409,0.409 0 0 0 0.377,0.252 z M 11.027,56.126 c 0.612,-0.108 1.196,0.3 1.304,0.913 a 0.409,0.409 0 0 0 0.805,-0.144 1.942,1.942 0 0 0 -2.252,-1.573 0.40839687,0.40839687 0 1 0 0.144,0.804 H 11.026 Z M 9.546,60.28 A 0.408,0.408 0 0 0 9.934,59.743 1.125,1.125 0 0 1 10.648,58.321 0.40825054,0.40825054 0 0 0 10.391,57.546 1.944,1.944 0 0 0 9.159,60 c 0.055,0.167 0.211,0.28 0.387,0.28 z m 6.402,-4.505 a 0.40845471,0.40845471 0 1 0 0.27,-0.771 1.124,1.124 0 0 1 -0.692,-1.433 0.408,0.408 0 1 0 -0.77,-0.269 1.941,1.941 0 0 0 1.195,2.473 z m -0.018,1.767 c 0.059,0.217 0.284,0.345 0.501,0.286 0.6,-0.165 1.218,0.188 1.383,0.786 a 0.40853396,0.40853396 0 1 0 0.788,-0.216 1.942,1.942 0 0 0 -2.387,-1.358 0.408,0.408 0 0 0 -0.286,0.502 z m 5.867,4.632 a 0.40853396,0.40853396 0 1 0 0.216,0.788 1.124,1.124 0 0 1 1.383,0.787 0.409,0.409 0 0 0 0.788,-0.216 1.942,1.942 0 0 0 -2.387,-1.359 z M 7.48,61.495 a 0.40866643,0.40866643 0 0 0 0.217,0.788 c 0.6,-0.165 1.219,0.188 1.383,0.787 A 0.40866643,0.40866643 0 1 0 9.868,62.853 1.943,1.943 0 0 0 7.481,61.495 Z m 1.84,30.56 0.851,3.153 -0.457,0.267 a 1.458,1.458 0 0 0 -0.597,1.852 c 0.521,1.175 1.753,3.388 4.207,5.208 a 1.462,1.462 0 0 0 0.184,1.556 c 1.096,1.355 2.544,2.496 4.186,3.3 1.643,0.804 3.432,1.247 5.175,1.281 a 1.463,1.463 0 0 0 1.341,-0.81 13.33,13.33 0 0 0 6.694,0.127 1.458,1.458 0 0 0 1.097,-1.608 l -0.07,-0.525 3.012,-1.262 a 4.333,4.333 0 0 0 2.214,-2.089 2.367,2.367 0 0 0 -0.092,-2.258 2.368,2.368 0 0 0 -1.94,-1.159 L 30.937,98.911 A 1.45,1.45 0 0 0 29.87,98.088 l -2.433,-0.435 a 1.453,1.453 0 0 0 -0.729,-0.815 l -6.212,-3.04 a 1.452,1.452 0 0 0 -1.09,-0.075 l -1.837,-1.654 a 1.45,1.45 0 0 0 -1.304,-0.337 l -2.71,-3.199 A 2.376,2.376 0 0 0 11.45,87.712 c -0.798,0.1 -1.486,0.59 -1.84,1.313 a 4.327,4.327 0 0 0 -0.29,3.03 z m 25.762,8.031 c 0.473,0.02 0.883,0.265 1.124,0.671 0.242,0.407 0.262,0.884 0.054,1.309 a 3.325,3.325 0 0 1 -1.703,1.606 l -2.764,1.158 -0.656,-4.91 z m -5.387,-1.014 a 0.456,0.456 0 0 1 0.373,0.39 l 0.942,7.051 a 0.46,0.46 0 0 1 -0.347,0.506 c -1.14,0.283 -3.42,0.635 -6.11,-0.099 l 2.876,-8.253 z m -9.638,-4.376 6.212,3.04 a 0.458,0.458 0 0 1 0.231,0.561 l -3.16,9.066 a 0.465,0.465 0 0 1 -0.451,0.31 c -1.599,-0.031 -3.243,-0.439 -4.755,-1.179 -1.513,-0.74 -2.844,-1.789 -3.85,-3.031 a 0.466,0.466 0 0 1 -0.032,-0.547 l 5.22,-8.058 a 0.458,0.458 0 0 1 0.585,-0.162 z m -3.156,-1.885 1.71,1.54 -4.753,7.336 a 12.295,12.295 0 0 1 -3.827,-4.765 0.46,0.46 0 0 1 0.186,-0.584 l 6.147,-3.583 a 0.456,0.456 0 0 1 0.537,0.056 z m -5.327,-4.108 c 0.469,-0.058 0.914,0.115 1.22,0.476 l 2.552,3.013 -4.28,2.495 -0.782,-2.892 a 3.328,3.328 0 0 1 0.224,-2.331 1.354,1.354 0 0 1 1.066,-0.76 z"
       id="path139"
       style="stroke:none" />
    <path
       d="M 13.925,96.643 A 0.5,0.5 0 1 0 13.422,95.78 l -1.676,0.977 a 0.5,0.5 0 0 0 -0.18,0.683 c 0.413,0.713 0.91,1.384 1.477,1.995 a 0.5,0.5 0 0 0 0.732,-0.68 c -0.402,-0.433 -0.766,-0.9 -1.085,-1.392 l 1.236,-0.72 z m 4.706,8.834 c 0.335,0.164 0.68,0.311 1.03,0.439 a 0.5,0.5 0 1 0 0.343,-0.938 c -0.316,-0.116 -0.63,-0.25 -0.934,-0.398 a 0.49933205,0.49933205 0 1 0 -0.439,0.897 z m -2.883,-2.071 c 0.302,0.309 0.631,0.604 0.978,0.877 a 0.5,0.5 0 0 0 0.618,-0.785 9.504,9.504 0 0 1 -0.597,-0.512 l 1.803,-2.784 a 0.5,0.5 0 0 0 -0.838,-0.543 l -2.026,3.126 a 0.5,0.5 0 0 0 0.062,0.621 z m 10.629,2.235 a 0.5,0.5 0 0 0 0.454,0.541 c 0.83,0.073 1.666,0.054 2.482,-0.057 a 0.5,0.5 0 1 0 -0.134,-0.99 c -0.744,0.101 -1.504,0.118 -2.26,0.052 a 0.5,0.5 0 0 0 -0.542,0.454 z m -15,-14.141 0.226,0.834 a 0.5,0.5 0 1 0 0.964,-0.26 l -0.225,-0.835 a 1.205,1.205 0 0 1 -0.041,-0.329 0.50004225,0.50004225 0 1 0 -1,-0.013 c -0.002,0.203 0.023,0.406 0.076,0.602 z"
       id="path141"
       style="stroke:none" />
    <g
       id="g149"
       style="stroke:none">
      <path
         d="m 144.581,7.926 a 9.982,9.982 0 0 0 -7.105,-2.943 9.982,9.982 0 0 0 -7.106,2.943 9.983,9.983 0 0 0 -2.943,7.106 9.982,9.982 0 0 0 2.943,7.106 9.982,9.982 0 0 0 7.106,2.943 9.982,9.982 0 0 0 7.105,-2.943 9.982,9.982 0 0 0 2.943,-7.106 9.983,9.983 0 0 0 -2.943,-7.106 z m -0.46,13.751 a 9.336,9.336 0 0 1 -6.645,2.753 9.337,9.337 0 0 1 -6.646,-2.753 9.336,9.336 0 0 1 -2.752,-6.645 c 0,-2.51 0.977,-4.87 2.752,-6.645 a 9.337,9.337 0 0 1 6.646,-2.753 c 2.51,0 4.87,0.978 6.645,2.753 a 9.336,9.336 0 0 1 2.752,6.645 c 0,2.51 -0.977,4.87 -2.752,6.645 z"
         id="path143"
         style="stroke:none" />
      <path
         d="m 137.476,11.234 a 3.803,3.803 0 0 0 -3.799,3.798 3.803,3.803 0 0 0 3.799,3.798 3.803,3.803 0 0 0 3.798,-3.798 3.802,3.802 0 0 0 -3.798,-3.798 z m 0,6.945 a 3.151,3.151 0 0 1 -3.148,-3.147 3.15,3.15 0 0 1 3.148,-3.147 3.15,3.15 0 0 1 3.147,3.147 3.15,3.15 0 0 1 -3.147,3.147 z m -5.5,-1.467 -0.695,-0.695 a 0.32526912,0.32526912 0 1 0 -0.46,0.46 l 0.695,0.695 a 0.32526912,0.32526912 0 1 0 0.46,-0.46 z m 2.548,-6.737 a 0.322,0.322 0 0 0 0.18,-0.055 l 1.042,-0.694 a 0.32560904,0.32560904 0 1 0 -0.361,-0.542 l -1.042,0.695 a 0.326,0.326 0 0 0 0.181,0.596 z m 7.348,2.307 a 0.326,0.326 0 0 0 0.146,0.437 l 0.694,0.347 a 0.327,0.327 0 0 0 0.437,-0.146 0.325,0.325 0 0 0 -0.145,-0.436 l -0.695,-0.348 a 0.326,0.326 0 0 0 -0.437,0.146 z m 0.6,4.904 a 0.3252403,0.3252403 0 1 0 -0.617,0.206 l 0.347,1.042 a 0.325,0.325 0 0 0 0.412,0.206 0.326,0.326 0 0 0 0.206,-0.412 z m -4.185,2.477 -0.694,0.695 a 0.324,0.324 0 0 0 0.23,0.556 0.325,0.325 0 0 0 0.23,-0.096 l 0.695,-0.694 a 0.326,0.326 0 1 0 -0.461,-0.46 z m -3.791,-0.061 -0.695,-0.347 a 0.32579518,0.32579518 0 1 0 -0.291,0.583 l 0.695,0.347 a 0.32534789,0.32534789 0 0 0 0.291,-0.582 z m -3.445,-5.807 h 0.347 a 0.326,0.326 0 1 0 0,-0.651 h -0.347 a 0.325,0.325 0 1 0 0,0.65 z m 1.68,-2.902 a 0.326,0.326 0 0 0 -0.582,0.291 l 0.347,0.695 a 0.326,0.326 0 0 0 0.583,-0.291 z m 5.613,-0.918 a 0.326,0.326 0 0 0 0.325,-0.326 V 8.955 a 0.326,0.326 0 0 0 -0.651,0 v 0.694 c 0,0.18 0.146,0.326 0.326,0.326 z m 1.59,1.007 a 0.325,0.325 0 0 0 0.437,-0.146 l 0.347,-0.694 a 0.32512459,0.32512459 0 1 0 -0.582,-0.29 l -0.347,0.694 a 0.326,0.326 0 0 0 0.145,0.437 z m 4.291,3.876 A 0.325,0.325 0 0 0 143.9,14.533 h -1.042 a 0.325,0.325 0 1 0 0,0.65 h 1.042 c 0.18,0 0.325,-0.145 0.325,-0.325 z m -2.986,4.195 a 0.326,0.326 0 1 0 -0.582,0.292 l 0.347,0.694 a 0.326,0.326 0 0 0 0.583,-0.29 l -0.348,-0.695 z m -5.007,0.897 a 0.326,0.326 0 0 0 -0.437,0.145 l -0.347,0.695 a 0.326,0.326 0 0 0 0.582,0.291 l 0.348,-0.694 a 0.326,0.326 0 0 0 -0.146,-0.437 z m -4.022,-1.85 -0.347,0.348 a 0.326,0.326 0 0 0 0.46,0.46 l 0.347,-0.347 a 0.32526912,0.32526912 0 1 0 -0.46,-0.46 z m 0,-3.82 -0.347,0.348 a 0.326,0.326 0 0 0 0.46,0.46 l 0.347,-0.347 a 0.32526912,0.32526912 0 1 0 -0.46,-0.46 z m 4.397,-3.958 h 0.348 a 0.326,0.326 0 0 0 0,-0.65 h -0.348 a 0.326,0.326 0 0 0 0,0.65 z m -2.661,0.947 a 0.326,0.326 0 0 0 0.461,-0.46 l -0.348,-0.348 a 0.32526912,0.32526912 0 1 0 -0.46,0.46 z m 8.218,-0.252 h 0.347 a 0.3255,0.3255 0 1 0 0,-0.651 h -0.347 a 0.326,0.326 0 1 0 0,0.65 z m 1.619,5.347 a 0.326,0.326 0 0 0 -0.461,0.46 l 0.348,0.348 a 0.324,0.324 0 0 0 0.46,0 0.326,0.326 0 0 0 0,-0.46 z m -4.107,3.994 -0.347,0.347 a 0.326,0.326 0 0 0 0.46,0.46 l 0.348,-0.347 a 0.326,0.326 0 0 0 -0.461,-0.46 z"
         id="path145"
         style="stroke:none" />
      <path
         d="m 145.334,12.902 c -0.192,-0.318 -0.373,-0.619 -0.498,-0.919 -0.132,-0.318 -0.221,-0.67 -0.316,-1.044 -0.186,-0.731 -0.378,-1.488 -0.921,-2.03 -0.543,-0.543 -1.299,-0.735 -2.031,-0.921 -0.373,-0.095 -0.725,-0.185 -1.043,-0.317 -0.301,-0.124 -0.601,-0.306 -0.92,-0.498 -0.652,-0.394 -1.327,-0.8 -2.129,-0.8 -0.803,0 -1.478,0.406 -2.13,0.8 -0.319,0.192 -0.619,0.374 -0.919,0.498 -0.319,0.132 -0.671,0.222 -1.044,0.317 -0.732,0.186 -1.488,0.378 -2.031,0.92 -0.543,0.543 -0.735,1.3 -0.921,2.031 -0.095,0.373 -0.184,0.726 -0.316,1.044 -0.125,0.3 -0.306,0.6 -0.498,0.92 -0.394,0.652 -0.801,1.327 -0.801,2.129 0,0.802 0.407,1.477 0.801,2.13 0.192,0.318 0.373,0.619 0.498,0.919 0.132,0.318 0.221,0.67 0.316,1.044 0.186,0.731 0.378,1.488 0.921,2.03 0.543,0.543 1.299,0.735 2.031,0.921 0.373,0.095 0.725,0.185 1.044,0.317 0.3,0.124 0.6,0.306 0.919,0.498 0.652,0.394 1.327,0.8 2.13,0.8 0.802,0 1.477,-0.406 2.129,-0.8 0.319,-0.192 0.619,-0.374 0.92,-0.498 0.318,-0.132 0.67,-0.222 1.043,-0.317 0.732,-0.186 1.488,-0.378 2.031,-0.92 0.543,-0.543 0.735,-1.3 0.921,-2.031 0.095,-0.373 0.184,-0.726 0.316,-1.044 0.125,-0.3 0.306,-0.6 0.498,-0.92 0.394,-0.652 0.801,-1.327 0.801,-2.129 0,-0.802 -0.407,-1.477 -0.801,-2.13 z m -0.557,3.924 c -0.196,0.324 -0.399,0.66 -0.542,1.006 -0.15,0.361 -0.25,0.753 -0.346,1.132 -0.172,0.676 -0.334,1.315 -0.751,1.731 -0.416,0.416 -1.054,0.579 -1.73,0.75 -0.379,0.097 -0.771,0.197 -1.133,0.346 -0.345,0.144 -0.681,0.346 -1.006,0.542 -0.603,0.364 -1.172,0.708 -1.793,0.708 -0.622,0 -1.191,-0.344 -1.794,-0.708 -0.325,-0.196 -0.661,-0.398 -1.006,-0.542 -0.362,-0.15 -0.754,-0.25 -1.133,-0.346 -0.676,-0.172 -1.314,-0.334 -1.73,-0.75 -0.417,-0.416 -0.579,-1.055 -0.751,-1.73 -0.096,-0.38 -0.196,-0.772 -0.346,-1.134 -0.143,-0.345 -0.346,-0.68 -0.542,-1.005 -0.364,-0.603 -0.707,-1.173 -0.707,-1.794 0,-0.621 0.343,-1.19 0.707,-1.793 0.196,-0.325 0.399,-0.661 0.542,-1.007 0.15,-0.361 0.25,-0.753 0.346,-1.132 0.172,-0.676 0.334,-1.315 0.751,-1.731 0.416,-0.416 1.054,-0.579 1.73,-0.75 0.379,-0.097 0.771,-0.196 1.133,-0.346 0.345,-0.144 0.681,-0.346 1.006,-0.542 0.603,-0.364 1.172,-0.708 1.794,-0.708 0.621,0 1.19,0.344 1.793,0.708 0.325,0.196 0.661,0.398 1.006,0.542 0.362,0.15 0.754,0.25 1.133,0.346 0.676,0.171 1.314,0.334 1.731,0.75 0.416,0.416 0.578,1.055 0.75,1.73 0.096,0.38 0.196,0.772 0.346,1.133 0.143,0.346 0.346,0.682 0.542,1.007 0.364,0.602 0.707,1.172 0.707,1.793 0,0.621 -0.343,1.19 -0.707,1.794 z"
         id="path147"
         style="stroke:none" />
    </g>
    <g
       id="g157"
       style="stroke:none">
      <path
         d="m 13.172,16.911 c 0.562,-0.116 0.965,-0.579 1.032,-1.12 l 3.142,-0.646 a 0.417,0.417 0 0 0 -0.168,-0.816 l -3.142,0.646 a 1.307,1.307 0 0 0 -1.39,-0.621 1.307,1.307 0 0 0 -1.016,1.542 c 0.145,0.705 0.837,1.16 1.542,1.015 z m -0.358,-1.74 a 0.473,0.473 0 1 1 0.19,0.925 0.473,0.473 0 0 1 -0.19,-0.926 z"
         id="path151"
         style="stroke:none" />
      <path
         d="m 32.706,17.033 -6.12,1.26 -0.191,-0.926 2.204,-0.453 a 1.307,1.307 0 0 0 1.015,-1.542 l -0.537,-2.611 a 6.646,6.646 0 0 0 -7.84,-5.165 l -11.178,2.3 C 7.654,10.39 6.041,12.694 6.463,15.032 a 4.402,4.402 0 0 0 1.687,2.743 c 0.808,0.608 1.79,0.919 2.791,0.888 l 0.261,0.457 c 0.072,0.126 0.163,0.236 0.267,0.328 a 0.41,0.41 0 0 0 0,0.067 l 1.194,11.925 c 0.05,0.5 -0.112,1 -0.444,1.376 l -0.534,0.604 c -0.271,0.306 -0.384,0.728 -0.302,1.128 l 0.09,0.436 c 0.046,0.225 0.267,0.37 0.492,0.324 l 21.33,-4.387 a 0.417,0.417 0 0 0 0.323,-0.492 l -0.09,-0.436 a 1.752,1.752 0 0 0 -2.066,-1.361 l -0.372,0.077 c -0.139,-0.02 -0.41,-0.098 -0.616,-0.547 a 2.072,2.072 0 0 1 -0.12,-0.337 5.313,5.313 0 0 0 3.304,-6.025 l -0.81,-3.945 0.026,-0.006 a 0.41655732,0.41655732 0 1 0 -0.168,-0.816 z m -6.936,1.427 -6.121,1.26 a 0.417,0.417 0 1 0 0.168,0.816 l 0.027,-0.006 0.811,3.945 a 5.313,5.313 0 0 0 5.415,4.232 c 0.037,0.257 0.042,0.6 -0.094,0.852 -4.786,0.03 -9.099,-3.322 -10.099,-8.185 L 15.34,18.762 a 0.417,0.417 0 0 0 -0.034,-0.1 c 0.059,-0.124 0.099,-0.26 0.116,-0.402 l 0.055,-0.462 6.262,-1.288 0.095,0.463 c 0.145,0.705 0.837,1.16 1.542,1.016 l 2.204,-0.454 z m 2.662,-2.362 -5.224,1.074 a 0.473,0.473 0 0 1 -0.557,-0.367 l -0.096,-0.462 6.149,-1.265 0.095,0.462 a 0.473,0.473 0 0 1 -0.367,0.558 z M 8.65,17.109 A 3.571,3.571 0 0 1 7.282,14.884 C 6.94,12.988 8.26,11.116 10.225,10.711 l 11.18,-2.299 a 5.814,5.814 0 0 1 6.619,3.686 l -9.106,1.873 a 0.417,0.417 0 1 0 0.168,0.816 l 9.168,-1.886 0.006,0.028 0.274,1.333 -6.557,1.348 -6.964,1.433 a 0.417,0.417 0 0 0 -0.33,0.358 l -0.09,0.76 a 0.472,0.472 0 0 1 -0.374,0.406 l -1.789,0.368 a 0.471,0.471 0 0 1 -0.505,-0.228 l -0.39,-0.682 a 0.416,0.416 0 0 0 -0.4,-0.209 3.573,3.573 0 0 1 -2.484,-0.707 z m 24.062,13.052 0.005,0.027 -20.513,4.22 -0.005,-0.028 a 0.474,0.474 0 0 1 0.109,-0.408 l 0.534,-0.603 a 2.646,2.646 0 0 0 0.65,-2.012 l -1.16,-11.58 c 0.088,0 0.177,-0.007 0.266,-0.026 l 1.788,-0.367 c 0.075,-0.016 0.147,-0.038 0.216,-0.065 l 0.457,2.223 c 1.231,5.986 7.103,9.853 13.088,8.622 l 3.046,-0.626 h 0.003 l 0.433,-0.09 a 0.918,0.918 0 0 1 1.083,0.713 z m -3.007,-1.675 c 0.076,0.17 0.167,0.32 0.27,0.452 l -1.996,0.41 c -0.37,0.076 -0.74,0.13 -1.108,0.166 0.046,-0.203 0.062,-0.424 0.048,-0.66 a 3.075,3.075 0 0 0 -0.025,-0.247 l 0.024,-0.005 2.612,-0.537 0.024,-0.005 c 0.035,0.13 0.084,0.276 0.15,0.427 z m 3.136,-6.518 a 4.477,4.477 0 0 1 -3.479,5.28 l -2.612,0.538 a 4.477,4.477 0 0 1 -5.28,-3.48 l -0.812,-3.944 5.278,-1.085 0.069,0.333 c -0.281,0.66 -1.51,3.686 -1.166,5.365 a 2.642,2.642 0 0 0 3.117,2.053 2.642,2.642 0 0 0 2.052,-3.116 c -0.335,-1.631 -2.673,-3.97 -3.187,-4.468 l -0.069,-0.335 5.278,-1.086 z m -7.185,2.839 c -0.188,-0.91 0.24,-2.488 0.659,-3.688 l 1.055,5.128 a 1.808,1.808 0 0 1 -1.714,-1.44 z m 1.478,-3.841 c 0.861,0.947 1.877,2.233 2.058,3.113 a 1.808,1.808 0 0 1 -1.006,2 z"
         id="path153"
         style="stroke:none" />
      <path
         d="m 22.569,10.07 a 4.037,4.037 0 0 1 3.016,1.354 0.417,0.417 0 1 0 0.622,-0.555 4.871,4.871 0 0 0 -3.64,-1.632 0.417,0.417 0 0 0 0.002,0.833 z m -2.547,0.441 0.87,-0.179 A 0.417,0.417 0 0 0 20.725,9.516 l -0.87,0.18 a 0.417,0.417 0 0 0 0.167,0.815 z m 11.236,13.781 a 0.415,0.415 0 0 0 0.531,-0.254 3.519,3.519 0 0 0 0.128,-1.88 L 31.38,19.546 a 0.417,0.417 0 1 0 -0.816,0.168 l 0.537,2.612 c 0.099,0.479 0.065,0.975 -0.097,1.435 a 0.417,0.417 0 0 0 0.254,0.531 z"
         id="path155"
         style="stroke:none" />
    </g>
    <g
       id="g163"
       style="stroke:none">
      <path
         d="m 97.357,138.712 c 0.115,0.04 0.243,0.024 0.345,-0.042 0.87,-0.564 1.39,-0.689 1.941,-0.821 0.592,-0.142 1.204,-0.289 2.187,-0.926 0.983,-0.637 1.367,-1.136 1.739,-1.618 0.346,-0.449 0.673,-0.873 1.542,-1.436 0.868,-0.563 1.388,-0.688 1.939,-0.82 0.592,-0.142 1.204,-0.288 2.186,-0.925 a 0.394,0.394 0 0 0 0.055,-0.623 l -14.314,-13.387 -0.143,-0.22 a 1.67,1.67 0 0 0 -1.455,-0.76 l -1.933,-2.281 a 0.396,0.396 0 0 0 -0.691,0.173 l -0.151,0.706 -0.706,-0.151 a 0.398,0.398 0 0 0 -0.44,0.56 l 1.292,2.697 c -0.247,0.509 -0.23,1.13 0.099,1.638 l 0.143,0.221 6.119,17.769 c 0.04,0.115 0.13,0.206 0.246,0.246 z m -5.584,-19.876 1.186,-0.768 a 0.875,0.875 0 0 1 1.158,0.188 l -2.645,1.714 a 0.875,0.875 0 0 1 0.301,-1.134 z m -1.25,-2.309 0.303,0.065 a 0.398,0.398 0 0 0 0.472,-0.306 l 0.064,-0.303 1.19,1.403 -0.025,0.015 -1.186,0.769 a 0.305,0.305 0 0 0 -0.023,0.016 z m 1.305,4.159 2.797,-1.813 13.74,12.849 c -0.618,0.343 -1.049,0.447 -1.5,0.555 -0.592,0.142 -1.203,0.289 -2.186,0.925 -0.983,0.637 -1.367,1.136 -1.739,1.618 -0.346,0.449 -0.673,0.873 -1.542,1.436 -0.869,0.563 -1.389,0.688 -1.94,0.821 -0.5,0.12 -1.016,0.244 -1.757,0.664 z"
         id="path159"
         style="stroke:none" />
      <path
         d="m 98.529,134.948 -0.306,-0.89 a 0.398,0.398 0 0 0 -0.751,0.259 l 0.306,0.89 a 0.398,0.398 0 0 0 0.75,-0.259 z m -1.113,-2.012 a 0.397,0.397 0 0 0 0.246,-0.505 l -1.551,-4.504 a 0.39704062,0.39704062 0 0 0 -0.751,0.258 l 1.551,4.505 a 0.398,0.398 0 0 0 0.505,0.246 z"
         id="path161"
         style="stroke:none" />
    </g>
    <g
       id="g171"
       style="stroke:none">
      <path
         d="m 123.708,82.617 a 0.436,0.436 0 0 0 -0.683,0.138 l -3.219,6.718 a 1.835,1.835 0 0 0 0.861,2.445 l 0.839,0.403 a 1.37,1.37 0 0 0 1.825,-0.642 l 2.411,-5.032 a 2.309,2.309 0 0 0 -0.548,-2.714 z m 0.907,1.97 c 0.474,0.42 0.613,1.112 0.34,1.683 l -2.411,5.031 a 0.495,0.495 0 0 1 -0.66,0.233 l -0.84,-0.403 a 0.96,0.96 0 0 1 -0.451,-1.28 l 2.969,-6.197 z"
         id="path165"
         style="stroke:none" />
      <path
         d="m 136.519,82.542 -0.384,-0.185 a 1.837,1.837 0 0 0 -1.036,-1.53 L 128.76,77.79 a 3.229,3.229 0 0 0 -3.285,0.293 l -2.81,2.025 a 3.24,3.24 0 0 0 -1.024,1.225 l -3.515,7.335 a 3.7,3.7 0 0 0 1.736,4.93 l 4.499,2.156 a 3.69,3.69 0 0 0 4.739,-1.386 l 5.898,-9.522 0.339,0.162 a 1.37,1.37 0 0 0 1.571,-0.28 l 0.537,0.258 -0.214,0.446 a 0.437,0.437 0 0 0 0.788,0.377 l 0.213,-0.446 3.458,1.657 c -0.18,0.81 0.176,1.681 0.917,2.116 l 2.209,1.294 a 1.96,1.96 0 0 0 1.56,0.183 c 0.521,-0.16 0.955,-0.533 1.191,-1.025 l 0.184,-0.383 a 1.958,1.958 0 0 0 -1.068,-2.671 l -2.392,-0.912 a 1.969,1.969 0 0 0 -2.224,0.61 l -3.457,-1.656 0.214,-0.446 a 0.437,0.437 0 0 0 -0.788,-0.377 l -0.214,0.446 -0.537,-0.258 a 1.369,1.369 0 0 0 -0.766,-1.4 z m 8.738,7.135 -2.209,-1.295 a 1.086,1.086 0 0 1 -0.531,-0.966 l 4.145,1.987 a 1.069,1.069 0 0 1 -0.541,0.375 c -0.293,0.09 -0.6,0.053 -0.864,-0.101 z m -1.277,-3.239 2.393,0.911 c 0.286,0.11 0.506,0.326 0.619,0.61 0.086,0.213 0.101,0.44 0.047,0.657 l -4.145,-1.987 a 1.087,1.087 0 0 1 1.086,-0.19 z m -19.241,8.529 -4.5,-2.156 a 2.826,2.826 0 0 1 -1.326,-3.766 l 3.516,-7.335 c 0.17,-0.355 0.428,-0.663 0.747,-0.893 l 2.81,-2.026 a 2.356,2.356 0 0 1 2.397,-0.213 l 6.338,3.037 a 0.95,0.95 0 0 1 0.507,0.597 c 0.077,0.265 0.04,0.54 -0.105,0.775 l -6.765,10.92 a 2.818,2.818 0 0 1 -3.619,1.06 z m 10.722,-10.867 0.404,-0.653 a 1.7,1.7 0 0 0 0.094,-0.173 l 0.012,-0.027 0.171,0.082 a 0.495,0.495 0 0 1 -0.428,0.892 z"
         id="path167"
         style="stroke:none" />
      <path
         d="m 129.1,82.226 a 0.436,0.436 0 0 0 -0.267,0.556 l 0.065,0.184 a 1.835,1.835 0 0 0 1.182,3.358 l 0.065,0.185 a 0.437,0.437 0 0 0 0.824,-0.29 l -0.065,-0.184 a 1.835,1.835 0 0 0 -1.183,-3.358 l -0.064,-0.184 A 0.437,0.437 0 0 0 129.1,82.226 Z m 0.386,3.14 a 0.96,0.96 0 0 1 -0.281,-1.527 l 0.568,1.613 a 0.957,0.957 0 0 1 -0.287,-0.085 z m 0.83,-1.731 a 0.962,0.962 0 0 1 0.28,1.527 l -0.567,-1.613 c 0.097,0.013 0.194,0.041 0.287,0.086 z m -2.361,-4.165 a 1.367,1.367 0 0 0 -1.391,0.124 0.4365733,0.4365733 0 1 0 0.511,0.708 0.494,0.494 0 0 1 0.503,-0.045 l 3.123,1.497 a 0.43631926,0.43631926 0 1 0 0.377,-0.787 z m -2.663,1.04 -0.431,0.311 a 0.437,0.437 0 0 0 0.511,0.709 l 0.431,-0.311 a 0.4365733,0.4365733 0 1 0 -0.511,-0.708 z"
         id="path169"
         style="stroke:none" />
    </g>
    <g
       id="g177"
       style="stroke:none">
      <path
         d="m 67.604,14.272 c 0.22,-0.552 0.17,-1.161 -0.137,-1.67 -0.006,-0.011 -0.008,-0.02 -0.005,-0.028 0.004,-0.008 0.01,-0.013 0.023,-0.017 a 1.868,1.868 0 0 0 1.25,-1.116 c 0.22,-0.552 0.17,-1.161 -0.138,-1.67 -0.008,-0.014 -0.006,-0.023 -0.004,-0.027 0.003,-0.009 0.01,-0.014 0.023,-0.018 0.724,-0.2 1.247,-0.79 1.365,-1.542 A 1.861,1.861 0 0 0 69.204,6.374 1.878,1.878 0 0 0 67.145,6.301 C 67.135,6.308 67.125,6.309 67.117,6.306 67.112,6.304 67.105,6.3 67.101,6.284 a 1.868,1.868 0 0 0 -1.117,-1.25 1.868,1.868 0 0 0 -1.67,0.137 C 64.293,5.184 64.276,5.178 64.27,5.154 a 1.868,1.868 0 0 0 -1.117,-1.25 1.868,1.868 0 0 0 -1.67,0.137 C 61.462,4.054 61.446,4.047 61.439,4.023 A 1.868,1.868 0 0 0 60.322,2.774 1.867,1.867 0 0 0 58.652,2.911 C 58.638,2.919 58.63,2.917 58.625,2.915 58.617,2.912 58.611,2.905 58.608,2.892 a 1.878,1.878 0 0 0 -1.543,-1.365 1.861,1.861 0 0 0 -1.81,0.777 1.878,1.878 0 0 0 -0.072,2.059 c 0.006,0.01 0.008,0.02 0.005,0.028 -0.003,0.005 -0.007,0.012 -0.023,0.016 a 1.868,1.868 0 0 0 -1.249,1.117 c -0.22,0.552 -0.17,1.16 0.137,1.67 0.006,0.011 0.008,0.02 0.005,0.028 -0.004,0.008 -0.01,0.013 -0.023,0.016 a 1.868,1.868 0 0 0 -1.25,1.117 c -0.22,0.552 -0.17,1.16 0.137,1.67 0.007,0.011 0.008,0.02 0.005,0.028 -0.003,0.008 -0.01,0.013 -0.022,0.016 a 1.868,1.868 0 0 0 -1.25,1.117 c -0.22,0.552 -0.17,1.16 0.137,1.67 0.006,0.01 0.008,0.02 0.005,0.028 -0.003,0.008 -0.01,0.013 -0.022,0.016 a 1.868,1.868 0 0 0 -1.25,1.117 c -0.22,0.552 -0.17,1.16 0.137,1.67 0.006,0.01 0.008,0.02 0.005,0.028 -0.004,0.008 -0.01,0.013 -0.023,0.016 a 1.868,1.868 0 0 0 -1.25,1.117 c -0.22,0.552 -0.17,1.16 0.137,1.67 0.009,0.014 0.007,0.022 0.005,0.027 -0.003,0.008 -0.01,0.014 -0.023,0.017 -0.724,0.2 -1.247,0.79 -1.365,1.543 a 1.861,1.861 0 0 0 1.168,2.02 1.866,1.866 0 0 0 1.667,-0.137 c 0.011,-0.007 0.02,-0.009 0.029,-0.005 0.005,0.002 0.012,0.006 0.016,0.022 a 1.868,1.868 0 0 0 1.117,1.249 c 0.552,0.22 1.16,0.17 1.67,-0.137 0.022,-0.013 0.037,-0.006 0.044,0.018 0.158,0.573 0.565,1.029 1.117,1.25 0.552,0.22 1.16,0.17 1.67,-0.137 0.021,-0.013 0.037,-0.007 0.044,0.017 0.158,0.574 0.565,1.03 1.117,1.25 0.551,0.22 1.16,0.17 1.67,-0.137 0.014,-0.008 0.022,-0.007 0.027,-0.005 0.008,0.003 0.014,0.011 0.017,0.023 0.2,0.724 0.79,1.247 1.542,1.365 a 1.861,1.861 0 0 0 1.81,-0.777 c 0.433,-0.626 0.46,-1.415 0.073,-2.058 -0.006,-0.011 -0.008,-0.02 -0.005,-0.028 0.002,-0.005 0.007,-0.013 0.022,-0.017 a 1.868,1.868 0 0 0 1.25,-1.117 c 0.22,-0.552 0.17,-1.16 -0.137,-1.67 -0.006,-0.01 -0.008,-0.02 -0.005,-0.027 0.004,-0.008 0.01,-0.013 0.023,-0.017 a 1.868,1.868 0 0 0 1.249,-1.117 c 0.22,-0.552 0.17,-1.16 -0.137,-1.67 -0.006,-0.01 -0.008,-0.02 -0.004,-0.027 0.003,-0.008 0.01,-0.013 0.022,-0.017 a 1.868,1.868 0 0 0 1.25,-1.117 c 0.22,-0.551 0.17,-1.16 -0.137,-1.67 -0.007,-0.01 -0.008,-0.019 -0.005,-0.027 0.003,-0.008 0.01,-0.013 0.022,-0.017 a 1.868,1.868 0 0 0 1.25,-1.116 z m -1.88,1.53 c 0.192,0.316 0.223,0.693 0.086,1.036 a 1.16,1.16 0 0 1 -0.776,0.692 0.74,0.74 0 0 0 -0.44,1.102 c 0.191,0.316 0.222,0.694 0.086,1.037 -0.137,0.342 -0.42,0.594 -0.776,0.692 a 0.74,0.74 0 0 0 -0.44,1.102 c 0.191,0.316 0.222,0.694 0.085,1.036 -0.136,0.343 -0.419,0.595 -0.775,0.693 a 0.74,0.74 0 0 0 -0.44,1.102 c 0.241,0.4 0.222,0.892 -0.049,1.284 -0.242,0.352 -0.689,0.543 -1.11,0.477 -0.472,-0.074 -0.841,-0.399 -0.965,-0.849 a 0.74,0.74 0 0 0 -1.102,-0.44 c -0.316,0.19 -0.694,0.222 -1.036,0.085 a 1.159,1.159 0 0 1 -0.693,-0.775 0.74,0.74 0 0 0 -1.102,-0.44 c -0.316,0.19 -0.694,0.222 -1.036,0.085 a 1.159,1.159 0 0 1 -0.693,-0.776 0.74,0.74 0 0 0 -1.102,-0.44 c -0.316,0.191 -0.694,0.222 -1.036,0.085 a 1.159,1.159 0 0 1 -0.693,-0.775 0.741,0.741 0 0 0 -1.102,-0.44 c -0.4,0.241 -0.892,0.223 -1.284,-0.048 a 1.158,1.158 0 0 1 -0.477,-1.112 c 0.074,-0.47 0.399,-0.84 0.849,-0.964 a 0.74,0.74 0 0 0 0.44,-1.102 1.159,1.159 0 0 1 -0.085,-1.036 c 0.137,-0.343 0.42,-0.595 0.776,-0.693 a 0.74,0.74 0 0 0 0.44,-1.102 1.159,1.159 0 0 1 -0.086,-1.036 c 0.137,-0.343 0.42,-0.595 0.776,-0.693 a 0.74,0.74 0 0 0 0.44,-1.102 1.159,1.159 0 0 1 -0.085,-1.036 c 0.136,-0.343 0.42,-0.595 0.775,-0.693 A 0.74,0.74 0 0 0 53.534,9.656 1.159,1.159 0 0 1 53.449,8.62 c 0.137,-0.342 0.42,-0.595 0.776,-0.693 A 0.74,0.74 0 0 0 54.665,6.825 1.159,1.159 0 0 1 54.58,5.789 c 0.136,-0.342 0.419,-0.595 0.775,-0.693 a 0.74,0.74 0 0 0 0.44,-1.102 c -0.241,-0.4 -0.223,-0.891 0.048,-1.284 0.243,-0.351 0.69,-0.543 1.112,-0.477 0.47,0.074 0.84,0.4 0.964,0.849 a 0.74,0.74 0 0 0 1.102,0.44 c 0.316,-0.19 0.694,-0.221 1.036,-0.085 0.343,0.137 0.595,0.42 0.693,0.776 a 0.74,0.74 0 0 0 1.102,0.44 c 0.316,-0.19 0.694,-0.222 1.036,-0.085 0.343,0.137 0.595,0.42 0.693,0.775 a 0.74,0.74 0 0 0 1.102,0.44 c 0.316,-0.19 0.694,-0.222 1.036,-0.085 0.342,0.137 0.595,0.42 0.693,0.775 a 0.74,0.74 0 0 0 1.102,0.44 c 0.4,-0.24 0.891,-0.222 1.284,0.049 0.351,0.243 0.543,0.69 0.477,1.111 -0.074,0.471 -0.4,0.84 -0.849,0.965 a 0.74,0.74 0 0 0 -0.44,1.101 c 0.19,0.317 0.221,0.695 0.085,1.037 -0.137,0.342 -0.42,0.595 -0.776,0.693 a 0.74,0.74 0 0 0 -0.44,1.101 c 0.191,0.317 0.222,0.694 0.085,1.037 -0.136,0.342 -0.42,0.595 -0.775,0.693 a 0.74,0.74 0 0 0 -0.44,1.101 z"
         id="path173"
         style="stroke:none" />
      <path
         d="m 57.776,5.04 a 0.359,0.359 0 0 0 -0.464,0.199 0.358,0.358 0 0 0 0.473,0.46 0.359,0.359 0 0 0 0.187,-0.468 0.359,0.359 0 0 0 -0.196,-0.191 z m 2.831,1.13 a 0.359,0.359 0 0 0 -0.464,0.2 0.358,0.358 0 0 0 0.473,0.46 0.358,0.358 0 0 0 0.187,-0.469 0.359,0.359 0 0 0 -0.196,-0.19 z m 2.831,1.13 a 0.359,0.359 0 0 0 -0.464,0.2 0.358,0.358 0 0 0 0.473,0.46 0.358,0.358 0 0 0 0.187,-0.469 0.358,0.358 0 0 0 -0.196,-0.19 z m 2.831,1.13 a 0.359,0.359 0 0 0 -0.464,0.2 0.358,0.358 0 0 0 0.472,0.46 0.358,0.358 0 0 0 0.188,-0.468 0.358,0.358 0 0 0 -0.196,-0.191 z M 56.646,7.87 a 0.359,0.359 0 0 0 -0.464,0.2 0.358,0.358 0 0 0 0.472,0.46 0.359,0.359 0 0 0 0.188,-0.468 0.359,0.359 0 0 0 -0.196,-0.191 z m 2.831,1.131 a 0.358,0.358 0 1 0 -0.264,0.665 0.358,0.358 0 0 0 0.264,-0.665 z m 2.831,1.13 a 0.358,0.358 0 0 0 -0.46,0.473 0.358,0.358 0 0 0 0.468,0.187 0.36,0.36 0 0 0 0.187,-0.469 0.359,0.359 0 0 0 -0.195,-0.19 z m 2.831,1.131 a 0.358,0.358 0 0 0 -0.46,0.472 0.358,0.358 0 0 0 0.468,0.187 0.359,0.359 0 0 0 0.187,-0.468 0.358,0.358 0 0 0 -0.195,-0.191 z m -10.754,2.27 a 0.358,0.358 0 0 0 -0.265,0.664 0.358,0.358 0 0 0 0.46,-0.473 0.358,0.358 0 0 0 -0.195,-0.19 z m 2.831,1.131 a 0.358,0.358 0 0 0 -0.46,0.472 0.359,0.359 0 0 0 0.469,0.188 0.359,0.359 0 0 0 0.187,-0.47 0.358,0.358 0 0 0 -0.196,-0.19 z m 2.831,1.13 a 0.358,0.358 0 0 0 -0.46,0.473 0.36,0.36 0 0 0 0.468,0.187 0.359,0.359 0 0 0 0.188,-0.469 0.358,0.358 0 0 0 -0.196,-0.19 z m 2.831,1.13 a 0.358,0.358 0 0 0 -0.46,0.473 0.359,0.359 0 0 0 0.468,0.187 0.358,0.358 0 0 0 0.188,-0.469 0.358,0.358 0 0 0 -0.196,-0.19 z m -7.362,-6.222 a 0.359,0.359 0 0 0 -0.465,0.2 0.358,0.358 0 0 0 0.473,0.46 0.358,0.358 0 0 0 -0.008,-0.66 z m 2.831,1.131 a 0.358,0.358 0 0 0 -0.46,0.472 0.358,0.358 0 0 0 0.468,0.188 0.358,0.358 0 0 0 0.187,-0.47 0.358,0.358 0 0 0 -0.195,-0.19 z m 2.831,1.13 a 0.35746363,0.35746363 0 1 0 -0.265,0.664 0.35746363,0.35746363 0 0 0 0.265,-0.664 z m 2.83,1.13 a 0.358,0.358 0 0 0 -0.46,0.473 0.358,0.358 0 0 0 0.66,-0.008 0.359,0.359 0 0 0 -0.2,-0.465 z m -10.753,2.271 a 0.358,0.358 0 0 0 -0.46,0.473 0.358,0.358 0 0 0 0.468,0.187 0.358,0.358 0 0 0 0.188,-0.469 0.358,0.358 0 0 0 -0.196,-0.19 z m 2.831,1.131 a 0.358,0.358 0 0 0 -0.46,0.472 0.358,0.358 0 0 0 0.66,-0.008 0.358,0.358 0 0 0 -0.2,-0.464 z m 2.831,1.13 a 0.358,0.358 0 0 0 -0.46,0.473 0.358,0.358 0 0 0 0.66,-0.009 0.358,0.358 0 0 0 -0.2,-0.464 z m 2.831,1.13 a 0.358,0.358 0 0 0 -0.46,0.473 0.358,0.358 0 1 0 0.46,-0.473 z m -9.623,-0.56 a 0.358,0.358 0 0 0 -0.46,0.473 0.358,0.358 0 0 0 0.659,-0.009 0.359,0.359 0 0 0 -0.2,-0.464 z m 2.831,1.131 a 0.358,0.358 0 0 0 -0.46,0.472 0.359,0.359 0 0 0 0.468,0.187 0.36,0.36 0 0 0 0.187,-0.469 0.359,0.359 0 0 0 -0.195,-0.19 z m 2.83,1.13 a 0.358,0.358 0 0 0 -0.46,0.473 0.358,0.358 0 0 0 0.469,0.187 0.36,0.36 0 0 0 0.187,-0.47 0.359,0.359 0 0 0 -0.196,-0.19 z m 2.831,1.13 a 0.359,0.359 0 0 0 -0.464,0.2 0.358,0.358 0 0 0 0.473,0.46 0.358,0.358 0 0 0 0.187,-0.469 0.36,0.36 0 0 0 -0.196,-0.19 z"
         id="path175"
         style="stroke:none" />
    </g>
    <path
       d="m 77.884,141.282 -1.777,0.143 a 1.448,1.448 0 0 0 -0.435,-1.685 c 0.01,-0.011 0.02,-0.021 0.028,-0.032 a 1.453,1.453 0 0 0 -0.198,-2.076 l 0.029,-0.032 a 1.452,1.452 0 0 0 -0.199,-2.075 l 0.03,-0.033 a 1.451,1.451 0 0 0 -0.199,-2.076 l 0.029,-0.032 a 1.454,1.454 0 0 0 -1.222,-2.392 l -2.724,0.219 -0.096,-1.198 a 0.988,0.988 0 0 0 -1.064,-0.905 l -1.07,0.086 a 2.11,2.11 0 0 0 -4.19,0.337 l -1.069,0.086 a 0.99,0.99 0 0 0 -0.904,1.064 l 0.096,1.198 -2.753,0.222 a 1.452,1.452 0 0 0 -0.792,2.584 l -0.03,0.031 a 1.452,1.452 0 0 0 0.2,2.076 l -0.03,0.032 a 1.45,1.45 0 0 0 0.199,2.075 l -0.029,0.033 a 1.45,1.45 0 0 0 0.2,2.075 1.45,1.45 0 0 0 -0.16,1.736 l -1.777,0.143 a 0.397,0.397 0 0 0 -0.363,0.427 1.85,1.85 0 0 0 1.989,1.694 l 17.016,-1.37 a 1.85,1.85 0 0 0 1.692,-1.99 0.396,0.396 0 0 0 -0.427,-0.365 z m -2.8,-4.677 a 0.66,0.66 0 0 1 -0.607,0.711 l -3.536,0.285 -0.107,-1.319 3.537,-0.285 a 0.662,0.662 0 0 1 0.712,0.608 z m -0.17,-2.108 a 0.661,0.661 0 0 1 -0.606,0.712 l -3.537,0.285 -0.106,-1.319 3.536,-0.285 a 0.662,0.662 0 0 1 0.712,0.605 v 0.002 z m -0.17,-2.107 a 0.66,0.66 0 0 1 -0.606,0.711 l -3.537,0.285 -0.106,-1.319 3.537,-0.285 a 0.661,0.661 0 0 1 0.712,0.606 z m -7.914,-4.153 a 1.32,1.32 0 0 1 1.393,1.021 l -0.21,0.017 a 1.135,1.135 0 0 0 -1.157,-0.744 0.16301917,0.16301917 0 1 0 0.026,0.325 0.809,0.809 0 0 1 0.787,0.446 l -2.046,0.165 a 1.32,1.32 0 0 1 1.207,-1.23 z m -3.19,2.38 a 0.195,0.195 0 0 1 0.179,-0.209 l 6.331,-0.51 c 0.107,-0.008 0.2,0.071 0.21,0.178 l 0.096,1.199 -0.419,0.033 a 0.397,0.397 0 0 0 -0.363,0.427 l 0.49,6.092 a 0.212,0.212 0 0 1 -0.01,0.082 0.204,0.204 0 0 1 -0.04,0.07 0.211,0.211 0 0 1 -0.37,-0.118 l -0.49,-6.092 a 0.396,0.396 0 0 0 -0.427,-0.363 l -1.183,0.095 a 0.397,0.397 0 0 0 -0.363,0.427 l 0.325,4.033 v 0.013 a 0.215,0.215 0 0 1 -0.08,0.168 0.204,0.204 0 0 1 -0.159,0.042 0.211,0.211 0 0 1 -0.104,-0.047 0.192,0.192 0 0 1 -0.075,-0.13 v -0.013 l -0.325,-4.032 a 0.397,0.397 0 0 0 -0.427,-0.364 l -1.99,0.16 -0.078,-0.968 a 0.164,0.164 0 0 0 -0.326,0.026 l 0.078,0.969 -0.383,0.03 -0.096,-1.198 z m 4.963,2.928 -0.394,0.032 -0.106,-1.317 0.394,-0.032 z m -0.33,0.822 0.394,-0.031 0.106,1.317 -0.394,0.031 z m -8.62,-0.764 a 0.66,0.66 0 0 1 0.606,-0.712 l 5.846,-0.471 0.106,1.318 -5.846,0.47 a 0.66,0.66 0 0 1 -0.711,-0.605 z m 0.17,2.107 a 0.66,0.66 0 0 1 0.606,-0.711 l 5.846,-0.471 0.106,1.317 -5.846,0.471 a 0.662,0.662 0 0 1 -0.712,-0.606 z m 0.17,2.108 a 0.662,0.662 0 0 1 0.606,-0.712 l 6.03,-0.485 0.008,0.009 c 0.013,0.015 0.026,0.03 0.04,0.043 l 0.015,0.016 0.056,0.051 a 1,1 0 0 0 1.46,-0.174 l 0.01,-0.016 a 0.69,0.69 0 0 0 0.036,-0.054 l 0.005,-0.007 0.578,-0.047 0.106,1.317 -8.238,0.663 a 0.661,0.661 0 0 1 -0.712,-0.602 z m 9.236,0.715 0.002,0.002 a 1.003,1.003 0 0 0 1.549,-0.125 l 0.002,-0.003 3.759,-0.302 a 0.66062943,0.66062943 0 1 1 0.106,1.317 l -13.773,1.109 a 0.661,0.661 0 0 1 -0.105,-1.317 z m -8.896,3.499 a 0.661,0.661 0 0 1 0.605,-0.711 l 13.773,-1.109 a 0.661,0.661 0 0 1 0.106,1.317 l -13.773,1.109 a 0.661,0.661 0 0 1 -0.711,-0.606 z m 16.222,0.813 -17.016,1.37 a 1.056,1.056 0 0 1 -1.026,-0.578 l 18.962,-1.526 c -0.129,0.408 -0.493,0.699 -0.92,0.734 z"
       id="path179"
       style="stroke:none" />
    <g
       id="g187"
       style="stroke:none">
      <path
         d="m 121.733,138.219 a 12.185,12.185 0 0 0 5.8,7.385 12.19,12.19 0 0 0 9.323,1.122 12.189,12.189 0 0 0 7.385,-5.8 12.19,12.19 0 0 0 1.122,-9.323 12.193,12.193 0 0 0 -5.8,-7.386 12.19,12.19 0 0 0 -9.323,-1.121 12.19,12.19 0 0 0 -7.386,5.8 12.19,12.19 0 0 0 -1.121,9.323 z m 8.721,-14.357 a 11.398,11.398 0 0 1 8.719,1.048 11.398,11.398 0 0 1 5.424,6.907 11.398,11.398 0 0 1 -1.048,8.719 11.398,11.398 0 0 1 -6.907,5.424 11.4,11.4 0 0 1 -8.72,-1.048 11.4,11.4 0 0 1 -5.423,-6.907 11.4,11.4 0 0 1 1.048,-8.72 11.4,11.4 0 0 1 6.907,-5.423 z"
         id="path181"
         style="stroke:none" />
      <path
         d="m 128.364,144.126 c 5.082,2.859 11.541,1.05 14.399,-4.031 2.859,-5.082 1.05,-11.541 -4.031,-14.399 -5.082,-2.859 -11.541,-1.05 -14.399,4.031 -2.859,5.082 -1.05,11.541 4.031,14.399 z m 1.092,-18.091 -0.048,0.619 -3.786,2.718 0.016,-0.209 a 9.715,9.715 0 0 1 3.818,-3.128 z m 3.394,-0.874 a 9.93,9.93 0 0 1 1.05,-0.021 l -0.298,3.873 -3.786,2.718 0.357,-4.648 2.675,-1.921 z m 9.393,5.284 -0.001,0.002 -0.252,3.284 -3.786,2.718 0.356,-4.647 3.155,-2.265 c 0.193,0.294 0.368,0.597 0.528,0.908 z m 0.323,8.244 -0.021,0.013 -0.147,0.106 0.356,-4.647 0.505,-0.362 a 9.717,9.717 0 0 1 -0.693,4.89 z m -4.926,5.098 0.048,-0.619 3.786,-2.718 -0.014,0.182 v 0.025 a 9.733,9.733 0 0 1 -3.82,3.13 z m 3.914,-4.373 -3.787,2.719 0.357,-4.648 3.787,-2.718 z m -8.358,5.267 0.298,-3.872 3.786,-2.718 -0.357,4.647 -2.677,1.923 a 9.935,9.935 0 0 1 -1.05,0.02 z m -8.343,-5.304 0.253,-3.286 3.786,-2.718 -0.357,4.647 -3.154,2.265 a 9.7,9.7 0 0 1 -0.528,-0.908 z m 9.077,-4.251 3.787,-2.718 -0.357,4.647 -3.787,2.718 z m -1.201,5.253 -3.786,2.719 0.357,-4.648 3.786,-2.718 z m 1.281,-6.289 0.356,-4.647 3.787,-2.719 -0.357,4.648 z m -0.844,0.606 -3.787,2.718 0.357,-4.647 3.787,-2.719 z m -4.71,4.36 -0.308,4.007 a 9.708,9.708 0 0 1 -2.305,-2.132 z m 4.194,2.359 -0.246,3.207 a 9.737,9.737 0 0 1 -3.019,-0.863 z m 5.99,-10.649 0.308,-4.007 a 9.704,9.704 0 0 1 2.305,2.131 z m -4.194,-2.359 0.246,-3.207 a 9.737,9.737 0 0 1 3.019,0.863 z m -5.474,3.93 -3.787,2.718 0.357,-4.647 3.787,-2.719 z m -4.444,-1.201 0.17,-0.123 -0.357,4.648 -0.504,0.362 a 9.726,9.726 0 0 1 0.691,-4.887 z m -0.549,5.764 0.283,-0.203 -0.078,1.013 a 9.795,9.795 0 0 1 -0.205,-0.81 z m 12.039,7.467 0.826,-0.593 -0.027,0.347 a 9.695,9.695 0 0 1 -0.799,0.246 z m 7.099,-11.445 -0.283,0.203 0.078,-1.013 c 0.079,0.267 0.148,0.537 0.205,0.81 z m -12.04,-7.467 -0.825,0.593 0.027,-0.348 c 0.262,-0.093 0.529,-0.174 0.798,-0.245 z"
         id="path183"
         style="stroke:none" />
      <path
         d="m 130.172,139.042 -0.135,1.759 a 0.398,0.398 0 0 0 0.793,0.06 l 0.135,-1.758 a 0.39767135,0.39767135 0 1 0 -0.793,-0.061 z m 0.38,-5.624 -0.135,1.759 a 0.398,0.398 0 1 0 0.793,0.061 l 0.135,-1.759 a 0.398,0.398 0 0 0 -0.793,-0.061 z m -3.951,5.065 0.135,-1.759 a 0.398,0.398 0 0 0 -0.793,-0.061 l -0.135,1.759 a 0.398,0.398 0 0 0 0.793,0.061 z m -0.278,-7.443 -0.135,1.758 a 0.398,0.398 0 0 0 0.793,0.061 l 0.135,-1.759 a 0.399,0.399 0 0 0 -0.366,-0.426 0.398,0.398 0 0 0 -0.427,0.366 z m 4.609,-3.246 -0.135,1.759 a 0.398,0.398 0 1 0 0.793,0.061 l 0.135,-1.759 a 0.398,0.398 0 0 0 -0.793,-0.061 z m 4.168,15.47 0.135,-1.759 a 0.39717282,0.39717282 0 1 0 -0.792,-0.061 l -0.135,1.759 a 0.398,0.398 0 1 0 0.792,0.061 z m 0.38,-5.624 0.136,-1.759 a 0.4,0.4 0 0 0 -0.366,-0.426 0.398,0.398 0 0 0 -0.427,0.366 l -0.135,1.758 a 0.398,0.398 0 1 0 0.792,0.061 z m 0.516,-7.382 a 0.398,0.398 0 0 0 -0.793,-0.061 l -0.135,1.758 a 0.398,0.398 0 1 0 0.793,0.061 z m 2.965,7.891 -0.135,1.758 a 0.398,0.398 0 1 0 0.793,0.061 l 0.135,-1.759 a 0.398,0.398 0 0 0 -0.793,-0.06 z m 0.38,-5.624 -0.135,1.758 a 0.398,0.398 0 0 0 0.793,0.061 l 0.135,-1.758 a 0.396,0.396 0 0 0 -0.366,-0.427 0.398,0.398 0 0 0 -0.427,0.366 z"
         id="path185"
         style="stroke:none" />
    </g>
    <g
       id="g193"
       style="stroke:none">
      <path
         d="m 23.19,132.931 a 8.426,8.426 0 0 0 -3.788,-4.415 0.417,0.417 0 0 0 -0.406,0.727 7.596,7.596 0 0 1 3.414,3.978 0.41608292,0.41608292 0 1 0 0.78,-0.29 z m 0.373,1.332 -0.004,-0.017 a 0.417,0.417 0 1 0 0.003,0.017 z m -0.313,4.599 a 0.417,0.417 0 0 0 -0.403,-0.43 l -0.823,-0.027 a 0.41623551,0.41623551 0 1 0 -0.028,0.832 l 0.824,0.027 a 0.416,0.416 0 0 0 0.43,-0.402 z m -11.418,-9.131 a 0.416,0.416 0 0 0 -0.402,-0.43 l -0.823,-0.027 a 0.416,0.416 0 1 0 -0.028,0.831 l 0.823,0.028 a 0.416,0.416 0 0 0 0.43,-0.402 z m 4.184,-2.196 a 0.415,0.415 0 0 0 -0.402,-0.429 l -0.823,-0.028 a 0.417,0.417 0 0 0 -0.028,0.832 l 0.823,0.027 a 0.416,0.416 0 0 0 0.43,-0.402 z m 6.914,8.325 -0.563,-0.602 a 0.41636072,0.41636072 0 1 0 -0.608,0.569 l 0.563,0.601 a 0.41601923,0.41601923 0 1 0 0.608,-0.568 z m -7.733,-5.605 0.027,-0.823 a 0.41623551,0.41623551 0 0 0 -0.832,-0.028 l -0.027,0.823 a 0.413,0.413 0 0 0 0.402,0.43 0.416,0.416 0 0 0 0.43,-0.402 z m 5.126,9.406 0.028,-0.823 a 0.41621899,0.41621899 0 1 0 -0.832,-0.027 l -0.027,0.822 a 0.41623551,0.41623551 0 1 0 0.832,0.028 z m 0.444,-5.509 0.027,-0.823 a 0.41623551,0.41623551 0 0 0 -0.832,-0.028 l -0.027,0.823 a 0.415,0.415 0 0 0 0.402,0.43 0.417,0.417 0 0 0 0.43,-0.402 z m -2.5,-4.376 a 0.417,0.417 0 0 0 -0.384,-0.447 l -0.82,-0.062 A 0.417,0.417 0 0 0 17,130.097 l 0.82,0.062 a 0.416,0.416 0 0 0 0.447,-0.383 z m 0.267,3.074 -0.008,-0.007 v -10e-4 a 0.41638474,0.41638474 0 1 0 -0.609,0.568 l 0.008,0.008 a 0.41601923,0.41601923 0 1 0 0.608,-0.568 z"
         id="path189"
         style="stroke:none" />
      <path
         d="m 25.497,136.199 a 10.126,10.126 0 0 0 -2.744,-7.304 10.128,10.128 0 0 0 -7.105,-3.225 10.125,10.125 0 0 0 -7.305,2.744 10.126,10.126 0 0 0 -3.224,7.105 10.13,10.13 0 0 0 2.743,7.305 10.132,10.132 0 0 0 7.106,3.225 c 2.722,0.09 5.316,-0.884 7.305,-2.744 a 10.13,10.13 0 0 0 3.224,-7.106 z M 8.47,142.255 c -2.564,-2.741 -3.158,-6.627 -1.843,-9.9 0.2,0.182 0.458,0.287 0.736,0.299 0.32,0.014 0.638,-0.103 0.872,-0.322 l 0.273,-0.255 a 0.551,0.551 0 0 1 0.765,0.016 0.53,0.53 0 0 1 0.148,0.387 0.578,0.578 0 0 1 -0.182,0.407 l -0.69,0.645 a 1.386,1.386 0 0 0 -0.084,1.93 l 0.018,0.02 c 0.244,0.261 0.577,0.413 0.94,0.428 0.376,0.016 0.75,-0.121 1.024,-0.378 l 0.53,-0.495 a 4.407,4.407 0 0 0 1.11,3.835 4.418,4.418 0 0 0 5.403,0.821 0.4,0.4 0 0 1 -0.122,0.233 l -0.75,0.701 a 1.454,1.454 0 0 0 -0.089,2.024 l 0.019,0.021 c 0.256,0.274 0.605,0.433 0.986,0.449 0.395,0.017 0.787,-0.127 1.074,-0.396 l 0.723,-0.677 a 0.426,0.426 0 0 1 0.309,-0.113 c 0.107,0.005 0.204,0.05 0.273,0.125 a 0.402,0.402 0 0 1 -0.026,0.559 l -0.079,0.074 a 1.24,1.24 0 0 0 -0.234,1.501 c -3.624,1.854 -8.188,1.179 -11.104,-1.939 z m 11.906,1.046 0.08,-0.074 c 0.486,-0.456 0.52,-1.229 0.075,-1.723 a 1.214,1.214 0 0 0 -0.855,-0.401 1.265,1.265 0 0 0 -0.913,0.338 l -0.723,0.676 a 0.654,0.654 0 0 1 -0.47,0.173 0.602,0.602 0 0 1 -0.422,-0.195 0.618,0.618 0 0 1 0.039,-0.86 l 0.75,-0.701 a 1.24,1.24 0 0 0 0.296,-1.373 4.43,4.43 0 0 0 1.145,-5.005 0.41619256,0.41619256 0 1 0 -0.768,0.321 3.596,3.596 0 0 1 -0.857,3.996 3.583,3.583 0 0 1 -5.059,-0.169 3.582,3.582 0 0 1 0.17,-5.058 3.593,3.593 0 0 1 4.043,-0.589 0.41613279,0.41613279 0 1 0 0.371,-0.745 4.43,4.43 0 0 0 -4.983,0.726 4.39,4.39 0 0 0 -0.941,1.266 1.196,1.196 0 0 0 -0.727,0.32 l -0.749,0.7 a 0.582,0.582 0 0 1 -0.42,0.155 0.536,0.536 0 0 1 -0.375,-0.173 0.55,0.55 0 0 1 0.035,-0.766 l 0.69,-0.645 c 0.274,-0.256 0.436,-0.619 0.445,-0.996 A 1.355,1.355 0 0 0 9.87,131.513 1.387,1.387 0 0 0 7.94,131.469 l -0.273,0.255 a 0.373,0.373 0 0 1 -0.269,0.099 0.337,0.337 0 0 1 -0.236,-0.108 0.346,0.346 0 0 1 -0.058,-0.367 9.322,9.322 0 0 1 1.808,-2.327 c 3.77,-3.526 9.707,-3.328 13.234,0.442 3.526,3.77 3.328,9.707 -0.442,13.234 a 9.37,9.37 0 0 1 -1.407,1.085 0.402,0.402 0 0 1 0.08,-0.481 z"
         id="path191"
         style="stroke:none" />
    </g>
    <g
       id="g199"
       style="stroke:none">
      <path
         d="m 85.713,10.661 a 0.274,0.274 0 0 0 -0.38,0.075 l -0.002,0.003 a 0.27457786,0.27457786 0 1 0 0.456,0.306 l 0.002,-0.003 a 0.274,0.274 0 0 0 -0.076,-0.38 z M 91.638,9.06 a 0.274,0.274 0 0 0 -0.38,0.075 l -0.002,0.003 a 0.274,0.274 0 1 0 0.455,0.305 L 91.713,9.44 A 0.274,0.274 0 0 0 91.638,9.06 Z M 93.99,9.436 A 0.274,0.274 0 0 0 93.61,9.511 L 93.607,9.514 A 0.27457786,0.27457786 0 1 0 94.063,9.82 L 94.065,9.817 A 0.274,0.274 0 0 0 93.99,9.437 Z"
         id="path195"
         style="stroke:none" />
      <path
         d="M 97.471,10.613 V 10.61 C 97.411,10.305 97.24,10.147 97.115,10.03 97.005,9.93 96.952,9.875 96.929,9.756 96.904,9.631 96.936,9.55 96.999,9.407 97.072,9.245 97.162,9.044 97.106,8.76 97.05,8.476 96.889,8.32 96.759,8.195 96.647,8.086 96.587,8.024 96.564,7.907 96.541,7.789 96.572,7.709 96.635,7.565 96.707,7.4 96.797,7.195 96.741,6.911 A 0.274,0.274 0 0 0 96.292,6.757 L 94.974,7.9 94.96,7.83 A 1.38,1.38 0 0 0 93.34,6.744 l -8.222,1.621 a 1.38,1.38 0 0 0 -1.086,1.62 l 0.017,0.085 -1.683,-0.567 v 0.002 a 0.274,0.274 0 0 0 -0.357,0.313 c 0.06,0.305 0.231,0.463 0.356,0.578 0.11,0.102 0.163,0.156 0.187,0.275 0.024,0.126 -0.008,0.206 -0.071,0.349 -0.073,0.162 -0.162,0.364 -0.106,0.647 0.055,0.284 0.217,0.44 0.346,0.565 0.112,0.11 0.172,0.171 0.195,0.289 0.024,0.117 -0.008,0.198 -0.07,0.341 -0.073,0.165 -0.163,0.37 -0.107,0.654 a 0.274,0.274 0 0 0 0.45,0.155 l 1.34,-1.164 0.018,0.085 c 0.073,0.373 0.292,0.682 0.585,0.878 0.293,0.197 0.661,0.282 1.034,0.208 l 8.222,-1.621 a 1.37,1.37 0 0 0 0.879,-0.585 1.37,1.37 0 0 0 0.207,-1.035 l -0.014,-0.07 1.654,0.557 a 0.275,0.275 0 0 0 0.357,-0.311 z m -14.005,2.09 a 0.91,0.91 0 0 0 -0.011,-0.288 c -0.058,-0.292 -0.221,-0.45 -0.352,-0.577 -0.11,-0.106 -0.168,-0.167 -0.19,-0.277 -0.021,-0.108 0.007,-0.18 0.069,-0.318 0.07,-0.159 0.168,-0.376 0.108,-0.678 a 0.907,0.907 0 0 0 -0.1,-0.272 l 1.182,0.398 0.236,1.196 z m 2.9,0.377 -0.306,0.06 A 0.824,0.824 0 0 1 85.437,13.015 0.825,0.825 0 0 1 85.085,12.486 L 84.571,9.879 A 0.831,0.831 0 0 1 85.225,8.904 L 86.765,8.6 85.827,10 a 0.27429956,0.27429956 0 0 0 0.456,0.305 l 1.244,-1.855 2.24,-0.442 z m 7.916,-1.562 -1.565,0.31 0.852,-1.27 a 0.27457786,0.27457786 0 1 0 -0.456,-0.306 l -1.157,1.725 -2.24,0.442 1.516,-2.261 A 0.27457786,0.27457786 0 0 0 90.776,9.852 l -1.821,2.717 -1.828,0.36 3.401,-5.071 1.827,-0.36 -0.603,0.9 a 0.27429956,0.27429956 0 1 0 0.456,0.305 l 0.909,-1.356 0.33,-0.065 a 0.825,0.825 0 0 1 0.622,0.125 c 0.184,0.123 0.31,0.311 0.352,0.529 l 0.515,2.607 a 0.825,0.825 0 0 1 -0.125,0.623 0.825,0.825 0 0 1 -0.529,0.352 z M 95.338,9.746 95.096,8.521 96.014,7.725 a 0.907,0.907 0 0 0 0.011,0.288 c 0.058,0.291 0.221,0.45 0.353,0.576 0.11,0.106 0.168,0.167 0.19,0.277 0.02,0.108 -0.008,0.18 -0.07,0.318 -0.07,0.159 -0.167,0.377 -0.108,0.678 a 0.908,0.908 0 0 0 0.1,0.272 z"
         id="path197"
         style="stroke:none" />
    </g>
    <g
       id="g205"
       style="stroke:none">
      <path
         d="m 48.65,65.233 a 6.051,6.051 0 0 1 4.333,6.417 2.029,2.029 0 0 1 -2.22,1.813 2.029,2.029 0 0 1 -1.813,-2.22 1.998,1.998 0 0 0 -1.433,-2.118 2.003,2.003 0 0 0 -2.48,1.362 l -2.222,7.638 a 2.029,2.029 0 0 1 -3.722,0.41 2.013,2.013 0 0 1 -0.17,-1.543 l 2.222,-7.637 a 6.014,6.014 0 0 1 2.899,-3.615 6.014,6.014 0 0 1 4.606,-0.507 z m 1.26,7.055 a 1.353,1.353 0 0 0 2.4,-0.706 5.357,5.357 0 0 0 -0.139,-1.87 4.65,4.65 0 0 1 -2.26,2.576 z m -0.917,-2.981 c 0.289,-0.277 0.533,-0.594 0.727,-0.946 a 0.338,0.338 0 0 1 0.591,0.327 4.63,4.63 0 0 1 -0.942,1.192 c 0.21,0.433 0.304,0.925 0.253,1.43 -0.012,0.123 -0.007,0.244 0.012,0.36 a 3.981,3.981 0 0 0 2.111,-3.08 5.375,5.375 0 0 0 -2.965,-2.605 4.686,4.686 0 0 1 -0.526,2.72 c 0.284,0.156 0.534,0.361 0.74,0.602 z m -9.308,8.902 a 1.343,1.343 0 0 0 1.163,0.7 4.474,4.474 0 0 0 -1.323,-1.482 c -0.027,0.269 0.027,0.54 0.16,0.782 z m 0.018,-1.477 a 5.152,5.152 0 0 1 1.82,2.008 c 0.14,-0.077 0.267,-0.18 0.372,-0.303 a 4.503,4.503 0 0 0 -1.843,-2.905 l -0.35,1.2 z m 0.547,-1.88 a 5.17,5.17 0 0 1 2.067,2.567 l 0.205,-0.704 a 4.521,4.521 0 0 0 -1.883,-3.203 l -0.39,1.34 z m 0.587,-2.02 a 5.195,5.195 0 0 1 2.066,2.573 l 0.341,-1.172 A 4.534,4.534 0 0 0 41.36,71.037 Z m 0.957,-3.289 -0.236,0.813 a 5.21,5.21 0 0 1 2.065,2.574 l 0.406,-1.397 -0.001,-0.007 a 4.026,4.026 0 0 0 -0.71,-1.79 0.338,0.338 0 0 1 0.55,-0.393 4.7,4.7 0 0 1 0.523,0.95 c 0.085,-0.29 0.215,-0.555 0.38,-0.79 a 4.022,4.022 0 0 0 -1.143,-2.682 5.339,5.339 0 0 0 -1.834,2.722 z m 3.595,-0.663 a 2.69,2.69 0 0 1 0.493,-0.283 l 0.022,-0.072 a 3.99,3.99 0 0 0 0.156,-1.291 0.338,0.338 0 0 1 0.675,-0.03 c 0.018,0.398 -0.017,0.795 -0.101,1.186 0.322,-0.04 0.656,-0.021 0.987,0.064 a 4.012,4.012 0 0 0 0.448,-2.671 5.338,5.338 0 0 0 -3.877,0.65 4.713,4.713 0 0 1 1.197,2.447 z"
         id="path201"
         style="stroke:none" />
      <path
         d="m 50.485,67.316 a 0.338,0.338 0 0 1 0.221,0.42 l -0.001,0.005 a 0.33812572,0.33812572 0 0 1 -0.646,-0.2 l 0.002,-0.005 a 0.338,0.338 0 0 1 0.424,-0.22 z m -4.337,-1.419 a 0.338,0.338 0 0 1 0.413,0.234 0.338,0.338 0 0 1 -0.648,0.189 L 45.91,66.311 a 0.338,0.338 0 0 1 0.238,-0.414 z m -3.121,2.546 0.006,0.005 a 0.338,0.338 0 0 1 -0.431,0.52 l -0.004,-0.004 a 0.335,0.335 0 0 1 -0.047,-0.474 0.339,0.339 0 0 1 0.476,-0.047 z"
         id="path203"
         style="stroke:none" />
    </g>
    <g
       id="g211"
       style="stroke:none">
      <path
         d="m 113.349,49.367 a 0.399,0.399 0 0 0 -0.557,-0.088 l -0.004,0.003 a 0.39874365,0.39874365 0 1 0 0.469,0.645 l 0.004,-0.003 a 0.398,0.398 0 0 0 0.088,-0.557 z"
         id="path207"
         style="stroke:none" />
      <path
         d="m 117.689,53.08 -4.776,-0.755 c 0.111,-0.06 0.22,-0.127 0.325,-0.203 1.452,-1.049 1.596,-3.239 1.609,-3.517 a 0.405,0.405 0 0 0 -0.303,-0.412 c -0.297,-0.084 -2.372,-0.614 -3.815,0.404 a 2.495,2.495 0 0 0 -1.732,-1.15 2.504,2.504 0 0 0 -2.862,2.08 c -0.103,0.65 0.056,1.282 0.398,1.789 l -4.1,-0.649 a 2.048,2.048 0 0 0 -2.341,1.702 l -1.23,7.772 a 2.049,2.049 0 0 0 1.702,2.342 l 15.256,2.413 a 2.049,2.049 0 0 0 2.341,-1.702 l 1.229,-7.772 a 2.048,2.048 0 0 0 -1.701,-2.342 z m -5.387,-2.952 a 0.399,0.399 0 0 0 -0.557,-0.088 l -0.722,0.525 a 2.487,2.487 0 0 0 0.019,-1.216 l 0.028,-0.019 c 0.035,-0.023 0.069,-0.045 0.102,-0.069 0.896,-0.647 2.24,-0.488 2.848,-0.37 -0.076,0.614 -0.343,1.93 -1.249,2.585 -0.68,0.491 -1.602,0.523 -2.274,0.457 l 1.716,-1.248 a 0.399,0.399 0 0 0 0.089,-0.557 z m -3.43,-1.894 a 1.707,1.707 0 0 1 1.418,1.95 1.707,1.707 0 0 1 -1.95,1.417 1.707,1.707 0 0 1 -1.418,-1.95 1.707,1.707 0 0 1 1.95,-1.417 z m 8.501,14.835 a 1.25,1.25 0 0 1 -1.429,1.04 l -15.255,-2.414 a 1.25,1.25 0 0 1 -1.04,-1.43 l 0.448,-2.828 a 1.512,1.512 0 0 0 1.814,0.036 1.58,1.58 0 0 0 0.64,-1.032 l 0.087,-0.55 c 0.088,-0.554 0.61,-0.943 1.164,-0.866 0.269,0.037 0.508,0.181 0.675,0.406 0.172,0.232 0.245,0.528 0.2,0.812 l -0.219,1.39 a 1.843,1.843 0 0 0 1.487,2.094 l 0.035,0.006 c 0.468,0.074 0.941,-0.04 1.335,-0.32 0.409,-0.291 0.688,-0.741 0.767,-1.235 l 0.238,-1.51 a 0.778,0.778 0 0 1 0.316,-0.508 0.72,0.72 0 0 1 0.544,-0.127 0.74,0.74 0 0 1 0.596,0.842 l -0.109,0.688 a 1.844,1.844 0 0 0 1.488,2.093 c 0.48,0.087 0.966,-0.026 1.37,-0.313 0.409,-0.291 0.688,-0.742 0.766,-1.236 l 0.101,-0.637 a 0.777,0.777 0 0 1 0.315,-0.508 0.722,0.722 0 0 1 0.544,-0.126 0.74,0.74 0 0 1 0.597,0.841 l -0.294,1.857 a 1.541,1.541 0 0 0 1.261,1.754 1.541,1.541 0 0 0 1.724,-1.281 l 0.33,-2.086 a 0.742,0.742 0 0 1 0.405,-0.547 z m 1.037,-6.557 c -0.66,0.083 -1.22,0.598 -1.328,1.284 l -0.33,2.086 a 0.74,0.74 0 0 1 -0.82,0.617 0.74,0.74 0 0 1 -0.59,-0.84 l 0.294,-1.857 a 1.543,1.543 0 0 0 -1.245,-1.752 1.508,1.508 0 0 0 -1.146,0.263 c -0.342,0.243 -0.575,0.62 -0.64,1.032 l -0.101,0.638 a 1.087,1.087 0 0 1 -0.442,0.71 1.01,1.01 0 0 1 -0.767,0.178 1.042,1.042 0 0 1 -0.84,-1.184 l 0.109,-0.688 a 1.542,1.542 0 0 0 -1.245,-1.75 1.509,1.509 0 0 0 -1.146,0.261 1.58,1.58 0 0 0 -0.64,1.033 l -0.239,1.51 a 1.087,1.087 0 0 1 -0.442,0.71 1.01,1.01 0 0 1 -0.767,0.179 1.042,1.042 0 0 1 -0.84,-1.184 l 0.22,-1.39 a 1.89,1.89 0 0 0 -0.347,-1.413 1.798,1.798 0 0 0 -1.206,-0.72 1.843,1.843 0 0 0 -2.062,1.532 l -0.087,0.549 a 0.777,0.777 0 0 1 -0.315,0.508 0.717,0.717 0 0 1 -0.544,0.126 0.74,0.74 0 0 1 -0.596,-0.841 l 0.571,-3.616 a 1.25,1.25 0 0 1 1.429,-1.038 l 15.256,2.413 c 0.68,0.108 1.146,0.749 1.039,1.43 z"
         id="path209"
         style="stroke:none" />
    </g>
    <g
       id="g217"
       style="stroke:none">
      <path
         d="m 47.932,42.334 c -0.068,-0.168 -1.22,-2.957 -3.484,-4.73 A 1.683,1.683 0 0 0 43.282,36.21 c 0.122,-0.18 0.21,-0.388 0.253,-0.615 A 1.676,1.676 0 0 0 42.19,33.648 1.676,1.676 0 0 0 40.227,34.97 c -0.043,0.227 -0.037,0.452 0.011,0.665 a 1.684,1.684 0 0 0 -1.564,0.819 c -2.814,0.793 -4.966,3.033 -5.094,3.168 -1.264,1.278 -1.785,3.053 -1.328,4.522 0.371,1.193 1.31,1.988 2.645,2.24 l 9.316,1.76 c 1.35,0.256 2.527,-0.144 3.312,-1.125 0.958,-1.196 1.117,-3.034 0.407,-4.685 z m -4.97,-5.515 c 0.55,0.104 0.913,0.626 0.811,1.165 a 1.005,1.005 0 0 1 -1.18,0.79 1.005,1.005 0 0 1 -0.81,-1.166 1.005,1.005 0 0 1 1.18,-0.79 z m -0.897,-2.513 c 0.55,0.104 0.913,0.626 0.811,1.165 a 1.005,1.005 0 0 1 -1.18,0.79 1.005,1.005 0 0 1 -0.81,-1.166 1.005,1.005 0 0 1 1.18,-0.79 z m -1.752,2.012 c 0.55,0.104 0.913,0.627 0.811,1.166 a 1.005,1.005 0 0 1 -1.18,0.789 1.005,1.005 0 0 1 -0.81,-1.166 1.005,1.005 0 0 1 1.18,-0.789 z m -6.255,3.773 0.006,-0.006 c 0.02,-0.022 1.916,-2.013 4.383,-2.859 a 1.68,1.68 0 0 0 1.373,1.705 1.688,1.688 0 0 0 1.448,-0.407 c 0.227,0.456 0.66,0.805 1.2,0.907 a 1.68,1.68 0 0 0 1.882,-1.038 c 1.936,1.685 2.952,4.168 2.962,4.195 l 0.003,0.007 c 0.316,0.732 0.437,1.501 0.372,2.213 a 0.566,0.566 0 0 1 -0.747,-0.63 l 0.139,-0.737 a 1.24,1.24 0 0 0 -0.966,-1.432 1.226,1.226 0 0 0 -0.937,0.184 c -0.279,0.186 -0.473,0.48 -0.535,0.806 l -0.1,0.53 a 0.826,0.826 0 0 1 -0.352,0.529 0.805,0.805 0 0 1 -1.24,-0.807 l 0.201,-1.062 a 1.24,1.24 0 0 0 -0.966,-1.432 1.224,1.224 0 0 0 -0.937,0.184 c -0.278,0.186 -0.473,0.48 -0.535,0.805 l -0.35,1.853 a 0.826,0.826 0 0 1 -0.352,0.529 0.805,0.805 0 0 1 -1.24,-0.807 l 0.206,-1.087 a 1.5,1.5 0 0 0 -0.243,-1.128 1.46,1.46 0 0 0 -0.96,-0.613 1.478,1.478 0 0 0 -1.697,1.17 l -0.08,0.43 a 0.575,0.575 0 0 1 -0.678,0.458 0.566,0.566 0 0 1 -0.444,-0.652 l 0.013,-0.07 a 1.24,1.24 0 0 0 -1.09,-1.451 4.92,4.92 0 0 1 0.261,-0.287 z m 12.944,6.51 c -0.623,0.778 -1.57,1.092 -2.665,0.885 l -9.315,-1.76 c -1.08,-0.204 -1.836,-0.837 -2.13,-1.781 -0.248,-0.796 -0.146,-1.706 0.249,-2.548 l 0.01,-0.018 a 0.578,0.578 0 0 1 0.634,-0.327 c 0.301,0.063 0.5,0.356 0.444,0.653 l -0.013,0.07 a 1.24,1.24 0 0 0 0.966,1.432 c 0.326,0.068 0.658,0.002 0.937,-0.184 0.278,-0.186 0.473,-0.48 0.535,-0.806 l 0.08,-0.43 a 0.805,0.805 0 0 1 1.449,-0.298 0.825,0.825 0 0 1 0.135,0.62 l -0.205,1.087 a 1.478,1.478 0 0 0 1.18,1.714 1.46,1.46 0 0 0 1.09,-0.225 1.5,1.5 0 0 0 0.638,-0.962 l 0.35,-1.852 a 0.575,0.575 0 0 1 0.677,-0.459 c 0.3,0.063 0.5,0.356 0.444,0.653 l -0.2,1.061 a 1.478,1.478 0 0 0 1.151,1.708 c 0.389,0.082 0.785,0.003 1.118,-0.22 a 1.5,1.5 0 0 0 0.638,-0.96 l 0.1,-0.53 a 0.575,0.575 0 0 1 0.677,-0.46 c 0.302,0.063 0.5,0.356 0.445,0.653 l -0.14,0.737 a 1.24,1.24 0 0 0 1.275,1.457 3.12,3.12 0 0 1 -0.554,1.09 z"
         id="path213"
         style="stroke:none" />
      <path
         d="m 38.261,38.202 a 0.335,0.335 0 0 0 -0.465,-0.088 l -0.004,0.003 a 0.335,0.335 0 1 0 0.378,0.553 l 0.003,-0.003 a 0.335,0.335 0 0 0 0.088,-0.465 z m -0.926,0.533 a 0.335,0.335 0 0 0 -0.46,-0.108 c -0.862,0.532 -1.56,1.11 -1.995,1.5 a 0.335,0.335 0 1 0 0.447,0.498 c 0.415,-0.372 1.08,-0.922 1.9,-1.429 a 0.335,0.335 0 0 0 0.108,-0.46 z"
         id="path215"
         style="stroke:none" />
    </g>
    <g
       id="g227"
       style="stroke:none">
      <path
         d="m 44.784,127.728 c 0.483,0.014 0.924,-0.243 1.15,-0.671 a 1.252,1.252 0 0 0 -0.091,-1.328 l -0.867,-1.201 a 0.547,0.547 0 0 1 -0.071,-0.504 l 0.498,-1.395 a 1.252,1.252 0 0 0 -0.282,-1.301 1.253,1.253 0 0 0 -1.292,-0.324 l -1.41,0.453 a 0.547,0.547 0 0 1 -0.501,-0.087 l -1.172,-0.905 a 1.254,1.254 0 0 0 -1.326,-0.134 1.254,1.254 0 0 0 -0.706,1.129 l -0.005,1.481 c 0,0.18 -0.09,0.348 -0.239,0.449 l -1.222,0.836 c -0.4,0.273 -0.605,0.74 -0.537,1.219 a 1.258,1.258 0 0 0 0.855,1.021 l 1.407,0.462 a 0.547,0.547 0 0 1 0.354,0.365 l 0.417,1.421 c 0.136,0.464 0.516,0.804 0.993,0.888 0.476,0.083 0.95,-0.108 1.235,-0.498 l 0.874,-1.195 a 0.548,0.548 0 0 1 0.458,-0.224 z m -1.46,-0.757 a 1.261,1.261 0 0 0 -1.054,0.516 l -0.875,1.195 a 0.538,0.538 0 0 1 -0.535,0.216 0.538,0.538 0 0 1 -0.43,-0.385 l -0.417,-1.421 a 1.26,1.26 0 0 0 -0.817,-0.843 l -1.407,-0.462 a 0.538,0.538 0 0 1 -0.37,-0.443 0.536,0.536 0 0 1 0.232,-0.528 l 1.222,-0.836 a 1.26,1.26 0 0 0 0.55,-1.037 l 0.005,-1.481 c 0,-0.213 0.115,-0.396 0.306,-0.489 a 0.536,0.536 0 0 1 0.575,0.058 l 1.172,0.904 c 0.329,0.254 0.761,0.33 1.157,0.203 l 1.41,-0.453 a 0.535,0.535 0 0 1 0.56,0.14 0.536,0.536 0 0 1 0.122,0.564 l -0.498,1.395 a 1.26,1.26 0 0 0 0.165,1.162 l 0.866,1.201 c 0.125,0.172 0.14,0.388 0.04,0.576 a 0.536,0.536 0 0 1 -0.499,0.29 z"
         id="path219"
         style="stroke:none" />
      <path
         d="m 40.733,123.507 0.005,-1.308 a 0.358,0.358 0 0 0 -0.715,-0.003 l -0.004,1.309 a 0.442,0.442 0 0 1 -0.192,0.363 l -0.132,0.09 a 0.35753182,0.35753182 0 1 0 0.404,0.59 l 0.13,-0.09 c 0.315,-0.215 0.503,-0.57 0.505,-0.951 z m -5.971,0.579 a 4.078,4.078 0 0 0 -5.76,-0.092 4.077,4.077 0 0 0 -0.092,5.759 4.077,4.077 0 0 0 5.76,0.093 4.078,4.078 0 0 0 0.092,-5.76 z m -5.338,5.17 a 3.342,3.342 0 0 1 -0.704,-1.083 2.668,2.668 0 0 1 0.188,-2.036 2.667,2.667 0 0 1 1.577,-1.318 2.064,2.064 0 0 1 1.584,0.143 c 0.491,0.257 0.853,0.69 1.019,1.22 a 1.58,1.58 0 0 1 -0.109,1.212 1.578,1.578 0 0 1 -0.934,0.78 1.19,1.19 0 0 1 -0.916,-0.082 1.193,1.193 0 0 1 -0.589,-0.705 0.883,0.883 0 0 1 0.061,-0.678 0.878,0.878 0 0 1 0.523,-0.436 0.64,0.64 0 0 1 0.801,0.419 0.35724396,0.35724396 0 1 0 0.682,-0.213 1.356,1.356 0 0 0 -1.697,-0.888 1.59,1.59 0 0 0 -0.942,0.786 c -0.198,0.38 -0.238,0.814 -0.11,1.223 0.153,0.488 0.487,0.888 0.94,1.125 0.453,0.237 0.972,0.284 1.46,0.131 a 2.288,2.288 0 0 0 1.354,-1.13 2.29,2.29 0 0 0 0.158,-1.757 2.77,2.77 0 0 0 -1.37,-1.64 2.776,2.776 0 0 0 -2.128,-0.192 c -0.254,0.08 -0.494,0.187 -0.717,0.318 a 3.362,3.362 0 0 1 4.694,0.128 3.362,3.362 0 0 1 -0.077,4.749 3.362,3.362 0 0 1 -4.748,-0.076 z"
         id="path221"
         style="stroke:none" />
      <path
         d="m 32.086,127.478 a 0.358,0.358 0 1 0 -0.6,0.356 c 0.09,0.093 0.23,0.134 0.362,0.093 a 0.012,0.012 0 0 1 0.006,-0.002 l -0.108,-0.341 0.108,0.341 a 0.356,0.356 0 0 0 0.232,-0.447 z m 5.144,4.211 v -0.002 a 0.358,0.358 0 1 0 0,0.002 z m -0.767,3.051 0.5,-1.988 a 0.35737725,0.35737725 0 1 0 -0.693,-0.175 l -0.5,1.988 a 0.35737725,0.35737725 0 0 0 0.693,0.175 z"
         id="path223"
         style="stroke:none" />
      <path
         d="m 41.862,135.902 c 0.218,-0.263 0.304,-0.606 0.237,-0.941 l -0.81,-3.985 a 1.129,1.129 0 0 0 -1.081,-0.899 l -3.604,-0.058 a 1.13,1.13 0 0 0 -1.11,0.864 l -0.937,3.957 a 1.118,1.118 0 0 0 0.288,1.041 c 0.206,0.213 0.487,0.336 0.787,0.34 l 5.348,0.086 c 0.342,0.005 0.663,-0.142 0.882,-0.405 z m -0.87,-0.309 -5.348,-0.086 a 0.407,0.407 0 0 1 -0.391,-0.502 l 0.936,-3.957 a 0.412,0.412 0 0 1 0.404,-0.315 l 3.603,0.058 a 0.41,0.41 0 0 1 0.394,0.327 l 0.808,3.985 a 0.406,0.406 0 0 1 -0.086,0.342 0.406,0.406 0 0 1 -0.32,0.148 z m -1.784,-10.944 a 0.358,0.358 0 0 0 -0.505,-0.008 l -0.004,0.004 a 0.35713373,0.35713373 0 1 0 0.497,0.513 l 0.004,-0.003 a 0.358,0.358 0 0 0 0.008,-0.506 z"
         id="path225"
         style="stroke:none" />
    </g>
    <g
       id="g233"
       style="stroke:none">
      <path
         d="m 142.444,45.46 c 0.529,0.69 0.909,1.652 1.101,2.782 a 0.34285602,0.34285602 0 1 0 0.676,-0.115 c -0.21,-1.24 -0.636,-2.306 -1.233,-3.085 a 0.344,0.344 0 0 0 -0.544,0.417 z m 1.215,3.773 0.001,0.008 c 0.013,0.189 0.176,0.33 0.365,0.317 a 0.344,0.344 0 0 0 0.319,-0.367 v -0.006 a 0.341,0.341 0 0 0 -0.365,-0.318 0.345,0.345 0 0 0 -0.32,0.366 z m -0.629,3.717 a 0.343,0.343 0 0 0 0.452,-0.175 l 0.188,-0.428 a 0.343,0.343 0 0 0 -0.628,-0.276 l -0.188,0.428 a 0.343,0.343 0 0 0 0.176,0.452 z m -2.116,-0.255 a 0.343,0.343 0 0 0 0.452,-0.176 l 0.187,-0.427 a 0.344,0.344 0 0 0 -0.628,-0.276 l -0.187,0.427 a 0.342,0.342 0 0 0 0.176,0.452 z m -1.621,-1.385 a 0.343,0.343 0 0 0 0.452,-0.176 l 0.188,-0.428 a 0.343,0.343 0 1 0 -0.628,-0.276 l -0.188,0.428 a 0.343,0.343 0 0 0 0.176,0.452 z m -2.116,-0.256 a 0.343,0.343 0 0 0 0.452,-0.176 l 0.188,-0.427 a 0.343,0.343 0 0 0 -0.628,-0.276 l -0.188,0.428 a 0.343,0.343 0 0 0 0.176,0.451 z m -1.62,-1.385 a 0.343,0.343 0 0 0 0.452,-0.176 l 0.187,-0.428 a 0.343,0.343 0 0 0 -0.628,-0.276 l -0.188,0.428 a 0.343,0.343 0 0 0 0.177,0.452 z m 5.558,5.213 a 0.342,0.342 0 0 0 0.451,-0.176 l 0.188,-0.428 a 0.343,0.343 0 1 0 -0.628,-0.275 l -0.188,0.427 a 0.343,0.343 0 0 0 0.177,0.452 z m -1.621,-1.385 a 0.343,0.343 0 0 0 0.452,-0.176 l 0.188,-0.428 a 0.343,0.343 0 0 0 -0.628,-0.276 l -0.188,0.428 a 0.343,0.343 0 0 0 0.176,0.452 z m -2.116,-0.255 a 0.343,0.343 0 0 0 0.452,-0.177 l 0.187,-0.427 a 0.343,0.343 0 0 0 -0.628,-0.276 l -0.187,0.427 a 0.342,0.342 0 0 0 0.176,0.453 z m -1.621,-1.386 a 0.343,0.343 0 0 0 0.452,-0.176 l 0.188,-0.428 a 0.343,0.343 0 1 0 -0.628,-0.276 l -0.188,0.428 a 0.343,0.343 0 0 0 0.176,0.452 z m 0.896,5.177 c 0.15,0.116 0.366,0.088 0.481,-0.062 l 0.005,-0.006 a 0.34323789,0.34323789 0 1 0 -0.543,-0.42 l -0.004,0.007 a 0.343,0.343 0 0 0 0.061,0.481 z"
         id="path229"
         style="stroke:none" />
      <path
         d="m 134.194,48.251 c -0.463,1.055 -0.573,2.11 -0.326,3.137 0.198,0.824 0.633,1.608 1.266,2.288 -1.092,0.54 -1.566,1.91 -1.634,2.123 a 0.343,0.343 0 0 0 0.156,0.415 c 0.038,0.02 0.833,0.459 1.753,0.504 0.012,0.867 0.389,1.647 0.47,1.805 a 0.345,0.345 0 0 0 0.414,0.184 c 0.105,-0.031 0.953,-0.294 1.615,-0.908 0.623,0.634 1.436,0.928 1.578,0.976 a 0.344,0.344 0 0 0 0.423,-0.162 c 0.111,-0.194 0.799,-1.47 0.457,-2.64 0.937,0.006 1.817,-0.208 2.563,-0.628 0.912,-0.513 1.608,-1.304 2.067,-2.35 0.178,-0.406 0.324,-0.86 0.435,-1.353 h 10e-4 c 0.35,-1.548 0.327,-3.305 -0.064,-4.818 -0.212,-0.82 -0.523,-1.532 -0.924,-2.114 -0.448,-0.652 -0.999,-1.124 -1.636,-1.404 -1.208,-0.53 -2.69,-0.366 -4.286,0.477 -1.365,0.72 -2.67,1.875 -3.582,3.167 h 0.001 a 7.53,7.53 0 0 0 -0.747,1.301 z m 1.292,7.784 c -0.489,-0.015 -0.954,-0.176 -1.232,-0.295 0.181,-0.43 0.603,-1.237 1.312,-1.505 0.503,-0.191 1.077,-0.094 1.517,0.047 -0.524,0.262 -1.162,0.705 -1.473,1.396 a 2.177,2.177 0 0 0 -0.124,0.357 z m 2.179,1.024 -0.001,0.002 c -0.374,0.468 -0.952,0.753 -1.292,0.89 -0.138,-0.338 -0.334,-0.944 -0.264,-1.522 a 1.584,1.584 0 0 1 0.127,-0.47 c 0.22,-0.487 0.688,-0.822 1.096,-1.034 l -0.295,0.672 a 0.343,0.343 0 0 0 0.628,0.276 l 0.286,-0.65 c 0.105,0.438 0.155,0.993 -0.06,1.472 -0.06,0.132 -0.137,0.253 -0.225,0.364 z m 1.777,0.959 c -0.286,-0.13 -0.741,-0.374 -1.088,-0.746 0.06,-0.093 0.114,-0.191 0.161,-0.295 0.314,-0.697 0.22,-1.472 0.067,-2.04 0.406,0.23 0.877,0.589 1.081,1.097 0.281,0.703 -0.027,1.56 -0.221,1.984 z m -0.6,-13.629 c 1.385,-0.73 2.695,-0.892 3.69,-0.455 1.004,0.44 1.775,1.528 2.172,3.062 0.318,1.233 0.371,2.694 0.155,4.003 l -0.037,0.008 c -0.316,0.07 -0.567,0.126 -0.87,-0.007 -0.308,-0.135 -0.442,-0.362 -0.611,-0.65 -0.197,-0.337 -0.421,-0.718 -0.948,-0.95 -0.527,-0.23 -0.959,-0.137 -1.34,-0.055 -0.326,0.07 -0.584,0.126 -0.892,-0.01 -0.303,-0.133 -0.432,-0.355 -0.594,-0.636 -0.187,-0.322 -0.419,-0.723 -0.965,-0.963 -0.54,-0.238 -0.975,-0.134 -1.324,-0.051 -0.318,0.075 -0.568,0.135 -0.911,-0.015 -0.338,-0.149 -0.464,-0.372 -0.622,-0.654 0.826,-1.061 1.96,-2.026 3.097,-2.627 z m -3.531,3.239 c 0.161,0.245 0.386,0.496 0.783,0.67 0.551,0.243 0.99,0.138 1.343,0.054 0.312,-0.074 0.56,-0.133 0.889,0.012 0.341,0.15 0.476,0.383 0.647,0.679 0.189,0.327 0.403,0.697 0.912,0.92 0.512,0.225 0.937,0.133 1.312,0.052 0.334,-0.072 0.597,-0.128 0.92,0.014 0.324,0.142 0.46,0.374 0.633,0.668 0.194,0.331 0.415,0.707 0.926,0.931 0.39,0.171 0.727,0.157 1.028,0.104 a 6.423,6.423 0 0 1 -0.336,0.987 c -0.772,1.758 -2.349,2.69 -4.327,2.557 h -0.023 c -0.437,-0.598 -1.105,-0.965 -1.531,-1.152 a 4.148,4.148 0 0 0 -0.367,-0.143 4.126,4.126 0 0 0 -0.353,-0.174 c -0.425,-0.186 -1.147,-0.43 -1.882,-0.347 -1.451,-1.37 -1.839,-3.166 -1.063,-4.933 0.129,-0.294 0.293,-0.595 0.489,-0.899 z"
         id="path231"
         style="stroke:none" />
    </g>
    <g
       id="g241"
       style="stroke:none">
      <path
         d="M 99.552,76.83 84.688,71.108 a 2.152,2.152 0 0 0 -2.778,1.233 l -5.723,14.864 a 2.152,2.152 0 0 0 1.233,2.778 l 14.864,5.723 a 2.152,2.152 0 0 0 2.779,-1.233 l 5.723,-14.864 A 2.153,2.153 0 0 0 99.552,76.83 Z m -5.123,17.4 a 1.472,1.472 0 0 1 -1.9,0.844 L 77.663,89.35 a 1.472,1.472 0 0 1 -0.844,-1.9 l 5.723,-14.865 a 1.472,1.472 0 0 1 1.9,-0.844 l 14.865,5.723 a 1.472,1.472 0 0 1 0.844,1.9 z"
         id="path235"
         style="stroke:none" />
      <path
         d="m 86.07,87.543 -2.619,-1.008 a 0.385,0.385 0 0 0 -0.497,0.221 l -1.008,2.618 a 0.385,0.385 0 0 0 0.22,0.497 l 2.619,1.008 a 0.385,0.385 0 0 0 0.497,-0.22 L 86.29,88.04 a 0.385,0.385 0 0 0 -0.22,-0.497 z m -1.316,2.597 -2.069,-0.796 0.797,-2.07 2.069,0.797 -0.797,2.07 z m -2.739,-4.157 -2.618,-1.008 a 0.385,0.385 0 0 0 -0.497,0.22 l -1.008,2.618 a 0.385,0.385 0 0 0 0.22,0.498 l 2.619,1.007 a 0.385,0.385 0 0 0 0.497,-0.22 l 1.008,-2.618 a 0.385,0.385 0 0 0 -0.22,-0.498 z m -1.315,2.596 -2.069,-0.796 0.797,-2.07 2.07,0.797 -0.798,2.07 z m 13.477,2.086 -2.618,-1.008 a 0.385,0.385 0 0 0 -0.497,0.22 l -1.008,2.619 a 0.385,0.385 0 0 0 0.22,0.497 L 92.894,94 a 0.385,0.385 0 0 0 0.497,-0.22 l 1.008,-2.619 a 0.385,0.385 0 0 0 -0.221,-0.497 z m -1.315,2.597 -2.07,-0.797 0.797,-2.069 2.07,0.797 z m -2.739,-4.158 -2.618,-1.008 a 0.385,0.385 0 0 0 -0.497,0.22 L 86,90.936 a 0.385,0.385 0 0 0 0.22,0.497 l 2.619,1.008 a 0.385,0.385 0 0 0 0.497,-0.22 l 1.008,-2.619 a 0.385,0.385 0 0 0 -0.22,-0.497 z m -1.315,2.597 -2.069,-0.797 0.797,-2.069 2.069,0.797 z M 88.756,80.459 a 0.34,0.34 0 0 0 -0.48,0.016 2.573,2.573 0 0 1 -1.825,0.81 0.34,0.34 0 0 0 0.012,0.679 3.256,3.256 0 0 0 2.31,-1.026 0.34,0.34 0 0 0 -0.017,-0.48 z"
         id="path237"
         style="stroke:none" />
      <path
         d="m 97.617,81.853 a 0.385,0.385 0 0 0 0.455,-0.234 L 99.08,79 a 0.385,0.385 0 0 0 -0.22,-0.497 l -2.619,-1.008 a 0.385,0.385 0 0 0 -0.497,0.221 L 94.74,80.323 A 2.157,2.157 0 0 0 93.312,81.2 0.698,0.698 0 0 0 92.949,80.883 l -2.027,-0.78 c -0.01,-0.005 -0.022,-0.008 -0.033,-0.012 0.075,-0.25 0.13,-0.505 0.164,-0.763 l 2.468,0.95 a 0.385,0.385 0 0 0 0.497,-0.22 l 1.008,-2.618 a 0.385,0.385 0 0 0 -0.22,-0.498 l -2.191,-0.843 a 0.34,0.34 0 0 0 -0.213,-0.468 c -0.08,-0.024 -1.433,-0.41 -2.846,-0.372 a 4.654,4.654 0 0 0 -1.465,-0.902 4.67,4.67 0 0 0 -1.308,-0.297 0.702,0.702 0 0 0 -0.38,-0.353 l -2.028,-0.78 a 0.702,0.702 0 0 0 -0.906,0.402 l -0.78,2.027 a 0.703,0.703 0 0 0 0.006,0.519 c -0.268,0.348 -0.491,0.74 -0.657,1.17 a 4.655,4.655 0 0 0 -0.314,1.692 c -0.976,1.022 -1.596,2.285 -1.633,2.36 a 0.34,0.34 0 0 0 0.184,0.465 l 0.021,0.007 -0.73,1.895 a 0.702,0.702 0 0 0 0.403,0.906 l 2.027,0.78 a 0.702,0.702 0 0 0 0.907,-0.402 l 0.78,-2.027 a 0.697,0.697 0 0 0 0.04,-0.156 c 0.218,0.152 0.45,0.286 0.69,0.4 l -0.906,2.355 a 0.385,0.385 0 0 0 0.22,0.497 l 2.619,1.008 a 0.385,0.385 0 0 0 0.497,-0.22 l 1.008,-2.618 a 0.385,0.385 0 0 0 -0.22,-0.498 l -0.397,-0.152 a 4.72,4.72 0 0 0 2.04,-0.906 l -0.039,0.1 a 0.702,0.702 0 0 0 0.403,0.907 l 0.73,0.281 a 2.157,2.157 0 0 0 -0.172,0.346 c -0.042,0.111 -0.08,0.236 -0.111,0.37 l -0.724,-0.279 a 0.702,0.702 0 0 0 -0.906,0.402 l -0.78,2.027 a 0.702,0.702 0 0 0 0.402,0.907 l 2.027,0.78 A 0.702,0.702 0 0 0 91.01,87.87 l 0.009,-0.022 0.02,0.009 c 0.25,0.096 0.518,0.098 0.789,0.032 l -0.1,0.257 a 0.702,0.702 0 0 0 0.403,0.907 l 2.027,0.78 a 0.702,0.702 0 0 0 0.906,-0.402 l 0.78,-2.027 a 0.702,0.702 0 0 0 -0.402,-0.907 l -1.399,-0.538 c 0.067,-0.121 0.122,-0.238 0.165,-0.35 a 2.15,2.15 0 0 0 0.105,-0.37 l 1.406,0.54 a 0.702,0.702 0 0 0 0.906,-0.402 l 0.337,-0.875 c 0.522,-0.163 0.949,-0.45 1.12,-0.892 0.212,-0.552 -0.035,-1.191 -0.465,-1.757 z m -2.142,-1.55 0.797,-2.069 2.07,0.797 -0.798,2.07 -2.069,-0.797 z m -5.173,-3.456 a 0.34,0.34 0 0 0 -0.448,-0.172 l -2.632,1.168 c -0.05,-0.266 -0.026,-0.54 0.074,-0.8 0.14,-0.366 0.416,-0.655 0.775,-0.815 1.123,-0.498 2.782,-0.249 3.619,-0.072 l -0.222,0.578 a 8.72,8.72 0 0 1 -0.995,1.28 c -0.36,0.376 -0.77,0.708 -1.208,0.902 a 1.46,1.46 0 0 1 -1.125,0.029 1.46,1.46 0 0 1 -0.642,-0.482 l 2.631,-1.168 a 0.34,0.34 0 0 0 0.172,-0.448 z m 3.188,2.692 -2.069,-0.796 0.653,-1.694 c 0.08,-0.125 0.15,-0.242 0.213,-0.349 l 2,0.77 -0.797,2.07 z m -9.388,-5.966 a 0.023,0.023 0 0 1 0.03,-0.013 l 1.451,0.56 a 4.72,4.72 0 0 0 -2.04,0.905 l 0.56,-1.452 z m -1.43,3.716 a 4.01,4.01 0 0 1 5.91,-1.925 3.78,3.78 0 0 0 -0.786,0.244 2.135,2.135 0 0 0 -1.134,1.192 2.132,2.132 0 0 0 -0.072,1.324 l -0.752,0.334 a 2.133,2.133 0 0 0 -1.03,-0.835 2.135,2.135 0 0 0 -1.644,0.042 c -0.247,0.11 -0.484,0.253 -0.709,0.42 0.045,-0.27 0.117,-0.536 0.216,-0.796 z m 2.737,2.868 a 1.461,1.461 0 0 1 -0.776,0.816 c -1.175,0.522 -2.94,0.224 -3.731,0.048 0.261,-0.462 0.763,-1.267 1.409,-1.915 l 0.004,-0.004 c 0.34,-0.34 0.72,-0.637 1.124,-0.817 0.36,-0.16 0.759,-0.17 1.126,-0.028 0.258,0.1 0.478,0.266 0.641,0.481 l -2.631,1.168 a 0.34,0.34 0 1 0 0.275,0.62 l 2.632,-1.168 c 0.05,0.266 0.026,0.54 -0.073,0.8 z m -3.14,4.347 a 0.023,0.023 0 0 1 -0.029,0.013 l -2.027,-0.78 A 0.023,0.023 0 0 1 80.2,83.707 l 0.762,-1.978 c 0.121,0.025 0.256,0.05 0.402,0.075 l 1.673,0.644 a 0.023,0.023 0 0 1 0.013,0.03 l -0.78,2.026 z m 4.046,1.582 -2.07,-0.796 0.798,-2.07 2.069,0.797 -0.797,2.07 z m -1.345,-3.62 a 3.988,3.988 0 0 1 -1.043,-0.593 c 0.343,-0.055 0.676,-0.144 0.981,-0.28 a 2.135,2.135 0 0 0 1.134,-1.192 c 0.165,-0.428 0.188,-0.888 0.072,-1.323 l 0.752,-0.334 c 0.245,0.378 0.601,0.67 1.03,0.834 0.535,0.206 1.12,0.192 1.644,-0.041 0.306,-0.136 0.595,-0.323 0.866,-0.541 a 4.01,4.01 0 0 1 -5.436,3.47 z m 4.912,0.339 a 0.023,0.023 0 0 1 -0.013,-0.03 l 0.78,-2.026 a 0.023,0.023 0 0 1 0.03,-0.013 l 2.026,0.78 a 0.023,0.023 0 0 1 0.013,0.03 l -0.44,1.144 a 2.16,2.16 0 0 0 -1.436,0.484 l -0.96,-0.37 z m 0.495,4.821 a 0.023,0.023 0 0 1 -0.03,0.013 l -2.026,-0.78 a 0.023,0.023 0 0 1 -0.013,-0.03 l 0.78,-2.027 a 0.023,0.023 0 0 1 0.03,-0.013 l 0.866,0.334 c -0.056,0.798 0.073,1.71 0.481,2.274 z m 0.907,-0.403 c -0.667,-0.256 -0.775,-2.08 -0.454,-2.914 0.25,-0.647 0.91,-1.018 1.57,-0.928 l -0.645,1.672 a 0.34,0.34 0 0 0 0.634,0.244 l 0.644,-1.673 c 0.55,0.377 0.791,1.094 0.542,1.742 -0.322,0.834 -1.624,2.114 -2.291,1.858 z m 3.914,-0.092 a 0.023,0.023 0 0 1 0.013,0.029 l -0.78,2.027 a 0.023,0.023 0 0 1 -0.03,0.013 l -2.026,-0.78 a 0.023,0.023 0 0 1 -0.013,-0.03 l 0.364,-0.945 a 4.78,4.78 0 0 0 0.93,-0.908 z m 0.794,-1.998 a 0.022,0.022 0 0 1 -0.03,0.013 l -1.636,-0.63 -0.008,-0.052 c 0.476,0.176 1.18,0.257 1.857,0.192 z M 94.533,83.82 a 1.473,1.473 0 0 1 -0.928,-1.57 l 1.673,0.644 a 0.34,0.34 0 0 0 0.244,-0.633 l -1.673,-0.644 a 1.473,1.473 0 0 1 1.741,-0.542 c 0.835,0.321 2.115,1.624 1.858,2.291 -0.257,0.667 -2.08,0.775 -2.914,0.454 z"
         id="path239"
         style="stroke:none" />
    </g>
    <g
       id="g247"
       style="stroke:none">
      <path
         d="m 79.823,40.846 c -1.814,-0.68 -4.044,-0.71 -6.119,-0.08 a 9.865,9.865 0 0 0 -2.53,1.16 9.721,9.721 0 0 0 -2.662,0.417 c -2.075,0.63 -3.913,1.894 -5.042,3.468 -1.3,1.813 -1.641,3.91 -0.987,6.066 0.94,3.093 3.025,5.477 5.874,6.713 2.462,1.068 5.389,1.223 8.034,0.427 l 0.007,-0.002 0.01,-0.003 0.011,-0.003 0.006,-0.002 c 2.642,-0.81 4.988,-2.566 6.44,-4.823 1.681,-2.61 2.09,-5.752 1.15,-8.845 -0.654,-2.156 -2.104,-3.71 -4.192,-4.493 z m 2.43,12.943 c -1.365,2.119 -3.571,3.767 -6.057,4.525 -2.487,0.752 -5.237,0.609 -7.549,-0.394 -2.648,-1.149 -4.59,-3.37 -5.466,-6.255 -1.266,-4.172 1.83,-7.496 5.543,-8.623 3.008,-0.914 6.87,-0.334 8.241,3.099 0.53,1.328 0.54,2.668 0.031,3.987 a 1.925,1.925 0 0 0 -0.518,-0.005 c -0.807,0.1 -1.508,0.076 -2.107,-0.042 0.626,-0.997 0.767,-2.088 0.38,-3.056 -0.589,-1.475 -2.467,-2.573 -5.335,-1.702 -0.559,0.17 -1.972,0.684 -3.023,1.798 -1.04,1.1 -1.361,2.432 -0.93,3.851 1.46,4.811 6.248,6.198 10.024,5.066 l 0.006,-0.002 0.01,-0.003 0.011,-0.004 0.006,-0.002 c 1.936,-0.594 3.648,-1.868 4.7,-3.498 0.846,-1.31 1.673,-3.462 0.816,-6.286 -0.357,-1.176 -1.09,-2 -2.18,-2.452 -1.028,-0.425 -2.144,-0.411 -2.915,-0.32 -0.972,-0.822 -2.17,-1.287 -3.425,-1.463 0.436,-0.21 0.904,-0.392 1.4,-0.543 3.713,-1.127 8.135,-0.086 9.401,4.086 0.876,2.885 0.498,5.81 -1.065,8.238 z m -6.961,1.545 c -3.44,1.04 -7.806,-0.21 -9.131,-4.574 -0.355,-1.17 -0.099,-2.226 0.762,-3.138 a 5.43,5.43 0 0 1 1.076,-0.86 6.02,6.02 0 0 0 0.076,2.013 c 0.358,1.682 1.269,2.918 2.467,3.766 a 1.934,1.934 0 0 0 0.01,1.7 c 0.23,0.46 0.625,0.8 1.112,0.962 a 1.908,1.908 0 0 0 1.467,-0.106 c 0.618,-0.31 1.207,-0.683 1.752,-1.106 0.697,0.05 1.396,0.03 2.073,-0.055 a 1.925,1.925 0 0 0 1.668,-2.145 1.909,1.909 0 0 0 -0.94,-1.422 6.08,6.08 0 0 0 -0.04,-4.499 6.21,6.21 0 0 0 -1.022,-1.718 c 0.6,-0.018 1.304,0.044 1.955,0.314 0.878,0.363 1.47,1.032 1.76,1.99 1.326,4.364 -1.609,7.83 -5.045,8.878 z m -1.658,-5.462 c -1.035,-0.397 -1.635,-1.121 -1.8,-1.896 -0.149,-0.702 0.066,-1.452 0.59,-2.083 0.84,0.248 1.4,0.78 1.65,1.403 0.32,0.8 0.158,1.729 -0.44,2.576 z m -2.513,-1.745 c 0.35,1.65 2.171,3.13 5.448,2.72 a 1.187,1.187 0 0 1 0.88,0.241 1.193,1.193 0 0 1 -0.584,2.124 c -3.33,0.417 -7.279,-0.841 -8.076,-4.589 a 5.354,5.354 0 0 1 0.029,-2.297 6.83,6.83 0 0 1 0.81,-0.305 c 0.749,-0.227 1.414,-0.303 1.99,-0.266 -0.487,0.732 -0.668,1.57 -0.497,2.372 z m 0.044,4.807 a 8.51,8.51 0 0 0 2.651,0.924 9.864,9.864 0 0 1 -1.012,0.587 1.185,1.185 0 0 1 -0.91,0.066 1.184,1.184 0 0 1 -0.69,-0.597 1.2,1.2 0 0 1 -0.04,-0.98 z"
         id="path243"
         style="stroke:none" />
      <path
         d="m 77.799,41.55 a 8.266,8.266 0 0 0 -0.914,-0.068 0.36506712,0.36506712 0 1 0 -0.014,0.73 c 0.282,0.005 0.562,0.026 0.833,0.062 a 0.36510307,0.36510307 0 1 0 0.095,-0.724 z m -3.448,10.455 a 0.363,0.363 0 0 0 0.413,-0.31 0.365,0.365 0 0 0 -0.31,-0.412 c -1.081,-0.155 -2.01,-0.569 -2.684,-1.197 a 0.36508903,0.36508903 0 1 0 -0.498,0.534 c 0.785,0.73 1.85,1.21 3.079,1.385 z m 4.987,-10.082 a 0.365,0.365 0 0 0 -0.25,0.685 c 1.557,0.57 2.633,1.705 3.112,3.282 a 0.365,0.365 0 0 0 0.698,-0.212 c -0.548,-1.804 -1.779,-3.103 -3.56,-3.755 z m -3.523,10.155 c 0.292,-0.01 0.594,-0.035 0.899,-0.073 a 0.365,0.365 0 0 0 -0.09,-0.724 9.397,9.397 0 0 1 -0.835,0.068 0.365,0.365 0 0 0 0.026,0.729 z"
         id="path245"
         style="stroke:none" />
    </g>
    <g
       id="g253"
       style="stroke:none">
      <path
         d="m 50.375,86.118 a 0.376,0.376 0 0 1 0.378,-0.007 l 17.495,9.766 a 2.783,2.783 0 0 1 1.072,3.783 l -3.886,6.96 c -0.29,0.52 -0.911,0.766 -1.444,0.573 a 1.18,1.18 0 0 1 -0.632,-1.683 l 3.906,-6.998 A 0.426,0.426 0 0 0 67.1,97.933 l -0.893,-0.498 -9.778,14.025 a 1.572,1.572 0 0 1 -2.063,0.475 l -9.297,-5.19 a 1.573,1.573 0 0 1 -0.678,-2.006 l 5.947,-13.702 -0.144,-4.586 a 0.376,0.376 0 0 1 0.18,-0.333 z m 0.716,4.98 a 0.375,0.375 0 0 1 -0.03,0.162 l -5.98,13.779 a 0.823,0.823 0 0 0 0.354,1.05 l 9.297,5.19 a 0.823,0.823 0 0 0 1.08,-0.249 l 9.973,-14.304 a 0.376,0.376 0 0 1 0.492,-0.113 l 1.19,0.664 c 0.566,0.316 0.77,1.035 0.453,1.602 l -3.906,6.997 a 0.426,0.426 0 0 0 0.232,0.611 c 0.188,0.068 0.421,-0.035 0.532,-0.233 l 3.886,-6.96 a 2.031,2.031 0 0 0 -0.783,-2.76 L 50.966,87.09 Z"
         id="path249"
         style="stroke:none" />
      <path
         d="m 53.502,105.028 -2.1,-1.172 a 0.376,0.376 0 1 1 0.367,-0.656 l 2.099,1.172 a 0.376,0.376 0 1 1 -0.366,0.656 z m 2.344,-4.199 -2.1,-1.172 a 0.376,0.376 0 1 1 0.367,-0.656 l 2.099,1.172 a 0.37559686,0.37559686 0 1 1 -0.366,0.656 z m 2.344,-4.199 -2.1,-1.172 a 0.376,0.376 0 1 1 0.366,-0.656 l 2.1,1.172 A 0.376,0.376 0 0 1 58.19,96.63 Z m -4.94,5.561 0.7,0.39 a 0.377,0.377 0 0 1 -0.367,0.656 l -0.7,-0.39 a 0.376,0.376 0 1 1 0.367,-0.656 z m 0.781,-1.4 0.7,0.391 a 0.376,0.376 0 1 1 -0.366,0.656 l -0.7,-0.391 a 0.376,0.376 0 1 1 0.366,-0.656 z m 1.563,-2.799 0.7,0.39 a 0.37627716,0.37627716 0 0 1 -0.367,0.657 l -0.7,-0.39 a 0.37627716,0.37627716 0 1 1 0.367,-0.657 z m 0.781,-1.399 0.7,0.39 a 0.376,0.376 0 0 1 -0.367,0.656 l -0.7,-0.39 a 0.376,0.376 0 1 1 0.367,-0.656 z m 2.078,8.505 c 0.17,0.118 0.212,0.352 0.093,0.523 l -3.224,4.625 a 0.37602826,0.37602826 0 0 1 -0.617,-0.43 l 3.225,-4.625 a 0.376,0.376 0 0 1 0.523,-0.093 z m -9.846,-5.099 a 0.376,0.376 0 0 1 -0.195,-0.494 l 2.245,-5.173 a 0.37619809,0.37619809 0 1 1 0.69,0.3 L 49.1,99.803 a 0.376,0.376 0 0 1 -0.494,0.196 z m 2.885,-6.651 a 0.376,0.376 0 0 1 -0.195,-0.494 l 0.32,-0.74 a 0.37619809,0.37619809 0 0 1 0.69,0.3 l -0.32,0.739 a 0.376,0.376 0 0 1 -0.495,0.195 z m 7.976,10.951 a 0.37602826,0.37602826 0 1 1 -0.617,-0.43 l 0.46,-0.66 a 0.3757426,0.3757426 0 1 1 0.617,0.429 z"
         id="path251"
         style="stroke:none" />
    </g>
    <g
       id="g259"
       style="stroke:none">
      <path
         d="m 133.856,113.359 3.615,0.03 c 0.37,0.003 0.729,-0.149 0.984,-0.417 0.255,-0.269 0.389,-0.635 0.368,-1.004 a 1.353,1.353 0 0 0 -0.482,-0.955 1.348,1.348 0 0 0 -1.026,-0.3 l -3.587,0.45 a 2.228,2.228 0 0 0 -2.23,-1.492 l -11.69,0.682 a 2.228,2.228 0 0 0 -2.042,1.741 l -3.614,-0.03 a 1.343,1.343 0 1 0 0.156,2.676 l 3.586,-0.45 a 2.229,2.229 0 0 0 2.231,1.492 l 11.689,-0.682 a 2.227,2.227 0 0 0 2.042,-1.741 z m -13.999,-2.163 11.69,-0.682 h 0.019 l 0.218,3.741 -0.019,0.002 -11.689,0.682 h -0.02 l -0.218,-3.742 z m 17.944,0.467 a 0.497,0.497 0 0 1 -0.323,0.882 l -3.587,-0.03 -0.03,-0.517 3.559,-0.447 a 0.494,0.494 0 0 1 0.381,0.112 z m -4.797,0.148 0.058,0.989 c 0.025,0.433 -0.153,0.831 -0.452,1.102 l -0.183,-3.134 c 0.328,0.235 0.552,0.61 0.577,1.043 z m -19.182,1.979 a 0.494,0.494 0 0 1 -0.179,-0.354 0.492,0.492 0 0 1 0.137,-0.373 0.493,0.493 0 0 1 0.365,-0.155 l 3.586,0.03 0.03,0.517 -3.558,0.447 a 0.496,0.496 0 0 1 -0.381,-0.112 z m 4.796,-0.148 -0.057,-0.989 a 1.373,1.373 0 0 1 0.452,-1.102 l 0.183,3.133 a 1.374,1.374 0 0 1 -0.578,-1.042 z"
         id="path255"
         style="stroke:none" />
      <path
         d="m 130.728,112.947 a 0.422,0.422 0 0 0 -0.446,-0.397 l -0.463,0.027 a 0.423,0.423 0 0 0 0.049,0.843 l 0.463,-0.027 a 0.421,0.421 0 0 0 0.397,-0.446 z m -2.147,0.125 a 0.424,0.424 0 0 0 -0.446,-0.397 l -3.412,0.199 a 0.423,0.423 0 0 0 0.049,0.843 l 3.412,-0.198 a 0.423,0.423 0 0 0 0.397,-0.447 z"
         id="path257"
         style="stroke:none" />
    </g>
    <g
       id="g267"
       style="stroke:none">
      <path
         d="m 119.666,20.57 -14.365,-4.677 a 1.353,1.353 0 0 0 -1.704,0.867 l -4.89,15.017 c -0.23,0.709 0.158,1.473 0.867,1.704 l 0.02,0.007 -0.219,0.673 a 0.666,0.666 0 0 0 0.427,0.838 l 0.653,0.213 a 0.665,0.665 0 0 0 0.838,-0.426 l 0.219,-0.674 10.488,3.415 -0.219,0.674 a 0.666,0.666 0 0 0 0.426,0.838 l 0.653,0.213 a 0.667,0.667 0 0 0 0.839,-0.427 l 0.219,-0.673 0.021,0.006 a 1.354,1.354 0 0 0 1.704,-0.866 l 4.89,-15.018 a 1.354,1.354 0 0 0 -0.867,-1.704 z m -14.564,-4.065 14.364,4.677 c 0.372,0.121 0.575,0.522 0.454,0.893 l -1.069,3.285 -15.711,-5.116 1.069,-3.285 a 0.71,0.71 0 0 1 0.893,-0.454 z m -4.421,18.081 a 0.022,0.022 0 0 1 -0.027,0.014 l -0.653,-0.213 A 0.022,0.022 0 0 1 99.987,34.36 l 0.22,-0.673 0.693,0.226 z m 12.406,4.04 a 0.022,0.022 0 0 1 -0.027,0.014 l -0.653,-0.213 c -0.011,-0.004 -0.018,-0.016 -0.014,-0.027 l 0.219,-0.673 0.694,0.226 z m 1.051,-1.08 -14.365,-4.676 a 0.709,0.709 0 0 1 -0.454,-0.893 l 3.621,-11.12 15.711,5.116 -3.621,11.12 a 0.708,0.708 0 0 1 -0.892,0.454 z"
         id="path261"
         style="stroke:none" />
      <path
         d="m 110.234,20.704 0.058,0.018 c -0.045,0.607 0.326,1.19 0.929,1.386 a 1.353,1.353 0 0 0 1.567,-0.573 l 0.058,0.02 a 0.32224602,0.32224602 0 1 0 0.199,-0.613 l -0.057,-0.019 a 1.354,1.354 0 0 0 -0.93,-1.386 1.354,1.354 0 0 0 -1.567,0.573 l -0.058,-0.018 a 0.32177049,0.32177049 0 1 0 -0.199,0.612 z m 1.186,0.792 a 0.708,0.708 0 0 1 -0.479,-0.562 l 1.198,0.39 a 0.71,0.71 0 0 1 -0.719,0.172 z m 0.439,-1.347 a 0.707,0.707 0 0 1 0.479,0.563 l -1.198,-0.39 a 0.71,0.71 0 0 1 0.719,-0.173 z m 2.655,2.391 a 0.321,0.321 0 0 0 0.046,0.594 0.322,0.322 0 0 0 0.246,-0.02 l 0.054,-0.027 a 1.35,1.35 0 0 0 2.34,-1.19 l 0.054,-0.028 a 0.32200155,0.32200155 0 0 0 -0.292,-0.574 l -0.054,0.028 a 1.353,1.353 0 0 0 -2.34,1.19 l -0.054,0.028 z m 1.691,0.296 a 0.709,0.709 0 0 1 -0.737,-0.059 l 1.123,-0.571 a 0.708,0.708 0 0 1 -0.386,0.63 z m -0.642,-1.262 a 0.705,0.705 0 0 1 0.736,0.058 l -1.123,0.571 a 0.709,0.709 0 0 1 0.387,-0.63 z m -9.372,-1.52 a 1.347,1.347 0 0 0 1.513,0.703 l 0.027,0.054 a 0.32200155,0.32200155 0 0 0 0.574,-0.292 l -0.027,-0.054 c 0.46,-0.397 0.61,-1.072 0.323,-1.637 a 1.355,1.355 0 0 0 -1.514,-0.703 l -0.027,-0.054 a 0.32200155,0.32200155 0 0 0 -0.574,0.292 l 0.028,0.054 a 1.353,1.353 0 0 0 -0.323,1.637 z m 0.574,-0.292 a 0.707,0.707 0 0 1 0.058,-0.737 l 0.571,1.123 a 0.707,0.707 0 0 1 -0.629,-0.386 z m 0.85,-0.994 a 0.708,0.708 0 0 1 0.353,1.088 l -0.571,-1.123 c 0.074,0 0.148,0.012 0.218,0.035 z m 8.292,7.8 -11.1,-3.614 a 1.01,1.01 0 0 0 -1.271,0.646 l -2.338,7.182 c -0.173,0.53 0.117,1.1 0.646,1.272 l 11.1,3.614 a 1.01,1.01 0 0 0 1.271,-0.647 l 2.339,-7.182 a 1.01,1.01 0 0 0 -0.647,-1.271 z m -2.304,8.254 a 0.365,0.365 0 0 1 -0.46,0.234 l -11.099,-3.614 a 0.364,0.364 0 0 1 -0.234,-0.46 l 2.338,-7.182 a 0.366,0.366 0 0 1 0.46,-0.234 l 11.1,3.614 a 0.366,0.366 0 0 1 0.234,0.46 z"
         id="path263"
         style="stroke:none" />
      <path
         d="m 112.544,26.917 -5.224,-1.7 a 0.321,0.321 0 0 0 -0.405,0.206 l -0.107,0.326 a 1.01,1.01 0 0 0 0.647,1.271 l 3.918,1.276 a 1.01,1.01 0 0 0 1.271,-0.647 l 0.106,-0.326 a 0.322,0.322 0 0 0 -0.206,-0.406 z m -0.512,0.533 a 0.365,0.365 0 0 1 -0.46,0.234 l -3.918,-1.276 a 0.364,0.364 0 0 1 -0.233,-0.46 l 0.006,-0.02 4.612,1.502 z"
         id="path265"
         style="stroke:none" />
    </g>
    <path
       fill="none"
       stroke="#000000"
       strokeLinecap="butt"
       strokeOpacity="0"
       d="M 0,0 H 150.33 V 150.33 H 0 Z"
       id="path269"
       style="stroke:none" />
  </g>
</svg>
