<?xml version="1.0" encoding="UTF-8" standalone="no"?>
<!DOCTYPE svg PUBLIC "-//W3C//DTD SVG 1.1//EN" "http://www.w3.org/Graphics/SVG/1.1/DTD/svg11.dtd">
<!-- Created with Vectornator (http://vectornator.io/) -->
<svg stroke-miterlimit="10" style="fill-rule:nonzero;clip-rule:evenodd;stroke-linecap:round;stroke-linejoin:round;" version="1.1" viewBox="0 0 120 40" xml:space="preserve" xmlns="http://www.w3.org/2000/svg" xmlns:xlink="http://www.w3.org/1999/xlink">
<defs/>
<clipPath id="ArtboardFrame">
<rect height="40" width="120" x="0" y="0"/>
</clipPath>
<g clip-path="url(#ArtboardFrame)" id="Слой-1">
<path d="M16.5938 3.375C7.40842 3.375-0.03125 10.8147-0.03125 20C-0.0312525 29.1853 7.40842 36.625 16.5938 36.625L103.406 36.625C112.592 36.625 120.031 29.1853 120.031 20C120.031 10.8147 112.592 3.375 103.406 3.375L16.5938 3.375ZM28.3438 8.96875C28.6116 8.96875 28.8125 9.2009 28.8125 9.46875C28.8125 9.7366 28.6116 9.9375 28.3438 9.9375C27.3221 9.9375 26.626 10.5935 26.1875 11.3438C26.0183 11.6333 25.8862 11.9331 25.7812 12.2188C26.4411 12.5282 26.9062 13.1916 26.9062 13.9688C26.9062 15.0399 26.0399 15.9062 24.9688 15.9062C23.8976 15.9063 23.0313 15.0399 23.0312 13.9688C23.0312 12.9467 23.8094 12.1059 24.8125 12.0312C24.9252 11.7018 25.0558 11.4049 25.2188 11.0938C25.9419 9.71015 27.0342 8.96875 28.3438 8.96875ZM57.5 13.3438C57.7347 13.3438 57.9383 13.343 58.125 13.375C58.3117 13.407 58.4657 13.4665 58.5938 13.5625C58.7218 13.6585 58.8369 13.8034 58.9062 13.9688C58.9756 14.1341 59 14.3583 59 14.625L59 18.8438L61.75 16.0312C62.3047 16.0312 62.7577 16.1609 63.0938 16.4062C63.4298 16.6516 63.5938 16.9392 63.5938 17.3125C63.5938 17.4725 63.5846 17.6167 63.5312 17.75C63.4779 17.8833 63.3932 18.0176 63.2812 18.1562C63.1692 18.2949 63.0198 18.4391 62.8438 18.5938C62.6677 18.7484 62.4534 18.9536 62.2188 19.1562L61.2812 19.9375L63.8438 22.5C63.7904 23.0013 63.6462 23.3896 63.4062 23.6562C63.1662 23.9229 62.8336 24.0625 62.375 24.0625C62.0337 24.0625 61.7042 23.9778 61.4375 23.8125C61.1708 23.6472 60.9031 23.3634 60.5938 22.9688L59 20.9688L59 23.9062C58.8827 23.9276 58.7293 23.9314 58.5 23.9688C58.2707 24.0061 58.0159 24.0312 57.7812 24.0312C57.5466 24.0312 57.3429 24.032 57.1562 24C56.9696 23.968 56.8155 23.9085 56.6875 23.8125C56.5595 23.7165 56.4443 23.5716 56.375 23.4062C56.3057 23.2409 56.2813 23.0167 56.2812 22.75L56.2812 13.5C56.3986 13.468 56.5832 13.4436 56.8125 13.4062C57.0418 13.3689 57.2653 13.3437 57.5 13.3438ZM91.3438 13.3438C91.5784 13.3438 91.7821 13.343 91.9688 13.375C92.1554 13.407 92.3095 13.4665 92.4375 13.5625C92.5655 13.6585 92.6807 13.8034 92.75 13.9688C92.8193 14.1341 92.8437 14.3583 92.8438 14.625L92.8438 18.8438L95.5938 16.0312C96.1484 16.0312 96.6015 16.1609 96.9375 16.4062C97.2735 16.6516 97.4375 16.9392 97.4375 17.3125C97.4375 17.4725 97.3971 17.6167 97.3438 17.75C97.2904 17.8833 97.2057 18.0176 97.0938 18.1562C96.9817 18.2949 96.8635 18.4391 96.6875 18.5938C96.5115 18.7484 96.2972 18.9536 96.0625 19.1562L95.125 19.9375L97.6875 22.5C97.6342 23.0013 97.49 23.3896 97.25 23.6562C97.01 23.9229 96.6774 24.0625 96.2188 24.0625C95.8774 24.0625 95.5479 23.9778 95.2812 23.8125C95.0146 23.6472 94.7468 23.3634 94.4375 22.9688L92.8438 20.9688L92.8438 23.9062C92.7264 23.9276 92.5418 23.9314 92.3125 23.9688C92.0832 24.0061 91.8596 24.0312 91.625 24.0312C91.3903 24.0312 91.1867 24.032 91 24C90.8133 23.968 90.6593 23.9085 90.5312 23.8125C90.4032 23.7165 90.2881 23.5716 90.2188 23.4062C90.1494 23.2409 90.125 23.0167 90.125 22.75L90.125 13.5C90.2423 13.468 90.4269 13.4436 90.6562 13.4062C90.8856 13.3689 91.1091 13.3437 91.3438 13.3438ZM37.0312 14.1562C37.5966 14.1563 38.055 14.2303 38.375 14.4062C38.695 14.5823 38.9132 14.8866 39.0625 15.2812C39.1585 15.5373 39.263 15.8256 39.375 16.1562C39.487 16.4869 39.6067 16.8355 39.7188 17.1875C39.8308 17.5395 39.9246 17.8721 40.0312 18.2188C40.1379 18.5654 40.2584 18.8789 40.3438 19.1562L40.4062 19.1562C40.6623 18.2602 40.9315 17.3998 41.1875 16.5625C41.4435 15.7252 41.6617 15.0341 41.875 14.4688C42.035 14.3834 42.2493 14.3087 42.5 14.25C42.7507 14.1913 43.0344 14.1562 43.3438 14.1562C43.8664 14.1562 44.2943 14.2203 44.625 14.375C44.9557 14.5297 45.1342 14.7745 45.1875 15.0625C45.2302 15.2758 45.2957 15.5886 45.3438 16.0312C45.3918 16.4739 45.4467 16.9766 45.5 17.5312C45.5533 18.0859 45.6029 18.6626 45.6562 19.2812C45.7096 19.8999 45.7333 20.4918 45.7812 21.0625C45.8293 21.6332 45.8742 22.1503 45.9062 22.625C45.9383 23.0997 45.9581 23.494 45.9688 23.75C45.7874 23.8567 45.6036 23.9207 45.4062 23.9688C45.2089 24.0168 44.9656 24.0313 44.6562 24.0312C44.2509 24.0312 43.9023 23.9824 43.625 23.8438C43.3477 23.7051 43.2088 23.4366 43.1875 23.0312C43.1235 21.8686 43.0785 20.803 43.0625 19.875C43.0465 18.947 43.032 18.1606 43 17.5312L42.9062 17.5312C42.7996 17.9472 42.6402 18.4957 42.4375 19.125C42.2348 19.7543 42.0067 20.5499 41.7188 21.5312C41.5801 21.6486 41.4062 21.7432 41.1875 21.8125C40.9688 21.8818 40.6943 21.9062 40.4062 21.9062C40.0222 21.9062 39.7194 21.8772 39.4688 21.7812C39.2181 21.6852 39.0434 21.5159 38.9688 21.2812C38.6701 20.3426 38.442 19.5813 38.25 19C38.058 18.4187 37.8879 17.9061 37.7812 17.4688L37.7188 17.4688C37.6867 18.0981 37.641 18.6702 37.625 19.1875C37.609 19.7048 37.5991 20.1968 37.5938 20.6875C37.5884 21.1782 37.5785 21.6862 37.5625 22.1875C37.5465 22.6888 37.532 23.2358 37.5 23.8438C37.3613 23.8971 37.1927 23.9314 36.9688 23.9688C36.7448 24.0061 36.5052 24.0312 36.2812 24.0312C35.8119 24.0312 35.4488 23.9618 35.1875 23.8125C34.9262 23.6632 34.7812 23.3947 34.7812 23L35.25 14.8438C35.3353 14.7051 35.5245 14.5662 35.8125 14.4062C36.1005 14.2462 36.5086 14.1562 37.0312 14.1562ZM22.2812 15.0938C22.7222 16.1403 23.7636 16.875 24.9688 16.875C26.0691 16.875 27.037 16.2784 27.5312 15.375L29.8438 17.9062L13.75 17.9062L22.2812 15.0938ZM50.75 15.9062C51.326 15.9062 51.8378 15.9452 52.3125 16.0625C52.7872 16.1798 53.1952 16.3537 53.5312 16.5938C53.8673 16.8338 54.1312 17.1632 54.3125 17.5312C54.4938 17.8993 54.5937 18.3112 54.5938 18.8125L54.5938 22.4062C54.5938 22.6836 54.4984 22.9178 54.3438 23.0938C54.1891 23.2698 54.0258 23.4033 53.8125 23.5312C53.1192 23.9473 52.1337 24.1563 50.875 24.1562C50.3097 24.1562 49.7971 24.1067 49.3438 24C48.8904 23.8933 48.5128 23.7446 48.1875 23.5312C47.8622 23.3179 47.6135 23.0494 47.4375 22.7188C47.2615 22.3881 47.1563 21.9998 47.1562 21.5625C47.1562 20.8265 47.3752 20.2697 47.8125 19.875C48.2498 19.4803 48.9264 19.221 49.8438 19.125L51.9375 18.9062L51.9375 18.7812C51.9375 18.4719 51.8033 18.2583 51.5312 18.125C51.2592 17.9917 50.887 17.9375 50.375 17.9375C49.9697 17.9375 49.5715 17.9772 49.1875 18.0625C48.8035 18.1478 48.4343 18.247 48.125 18.375C47.9863 18.279 47.8773 18.1348 47.7812 17.9375C47.6852 17.7402 47.6562 17.5258 47.6562 17.3125C47.6563 17.0352 47.7104 16.8216 47.8438 16.6562C47.9771 16.4909 48.1914 16.3361 48.4688 16.2188C48.7781 16.1014 49.1412 16.0221 49.5625 15.9688C49.9838 15.9154 50.3767 15.9063 50.75 15.9062ZM68.4375 15.9062C69.0028 15.9062 69.536 15.9856 70 16.1562C70.464 16.3269 70.8515 16.5451 71.1875 16.8438C71.5235 17.1424 71.7821 17.5215 71.9688 17.9375C72.1554 18.3535 72.25 18.7906 72.25 19.2812C72.25 19.6439 72.1402 19.933 71.9375 20.125C71.7348 20.317 71.4564 20.4467 71.0938 20.5L67.1562 21.0938C67.2736 21.4458 67.5123 21.699 67.875 21.875C68.2377 22.051 68.6557 22.125 69.125 22.125C69.5623 22.125 69.9544 22.0807 70.3438 21.9688C70.7331 21.8567 71.0672 21.7118 71.3125 21.5625C71.4832 21.6692 71.6327 21.8392 71.75 22.0312C71.8673 22.2233 71.9062 22.4117 71.9062 22.625C71.9062 23.105 71.698 23.4841 71.25 23.7188C70.9087 23.9001 70.5204 23.9985 70.0938 24.0625C69.6671 24.1265 69.2796 24.1563 68.9062 24.1562C68.2769 24.1562 67.6637 24.0822 67.125 23.9062C66.5863 23.7302 66.1188 23.477 65.7188 23.125C65.3188 22.773 65.0106 22.3146 64.7812 21.7812C64.5519 21.2479 64.4375 20.6209 64.4375 19.9062C64.4375 19.2023 64.5519 18.6004 64.7812 18.0938C65.0106 17.5871 65.3142 17.1691 65.6875 16.8438C66.0608 16.5184 66.4888 16.2797 66.9688 16.125C67.4488 15.9703 67.9362 15.9063 68.4375 15.9062ZM77.5312 15.9062C78.2993 15.9062 78.8653 16.0352 79.2812 16.3125C79.6973 16.5898 79.9063 16.9377 79.9062 17.375C79.9062 17.5777 79.8773 17.7615 79.7812 17.9375C79.6852 18.1135 79.5655 18.2783 79.4375 18.4062C79.2562 18.3209 79.0372 18.2362 78.7812 18.1562C78.5252 18.0762 78.2362 18.0312 77.9375 18.0312C77.6708 18.0312 77.4275 18.0709 77.1875 18.1562C76.9475 18.2416 76.7385 18.3659 76.5625 18.5312C76.3865 18.6966 76.2317 18.9109 76.125 19.1562C76.0183 19.4016 75.9688 19.7006 75.9688 20.0312C75.9688 20.6926 76.1838 21.1693 76.5625 21.5C76.9412 21.8307 77.3935 22 77.9375 22C78.2575 22 78.5153 21.9809 78.75 21.9062C78.9847 21.8316 79.1937 21.7416 79.375 21.6562C79.5883 21.8056 79.7683 21.9803 79.875 22.1562C79.9817 22.3322 80.0312 22.5359 80.0312 22.7812C80.0312 23.2186 79.8222 23.5412 79.4062 23.7812C78.9902 24.0213 78.4235 24.1563 77.6875 24.1562C77.0155 24.1562 76.3878 24.0411 75.8438 23.8438C75.2997 23.6464 74.8268 23.3886 74.4375 23.0312C74.0482 22.6739 73.7758 22.2513 73.5625 21.75C73.3492 21.2487 73.2187 20.6705 73.2188 20.0625C73.2188 19.3585 73.3332 18.7468 73.5625 18.2188C73.7918 17.6907 74.1053 17.2476 74.5 16.9062C74.8947 16.5649 75.3577 16.3269 75.875 16.1562C76.3923 15.9856 76.9552 15.9063 77.5312 15.9062ZM84.5938 15.9062C85.1698 15.9062 85.6816 15.9452 86.1562 16.0625C86.6309 16.1798 87.039 16.3537 87.375 16.5938C87.711 16.8338 87.9749 17.1632 88.1562 17.5312C88.3376 17.8993 88.4375 18.3112 88.4375 18.8125L88.4375 22.4062C88.4375 22.6836 88.3422 22.9178 88.1875 23.0938C88.0328 23.2698 87.8696 23.4033 87.6562 23.5312C86.9629 23.9473 85.9774 24.1563 84.7188 24.1562C84.1534 24.1562 83.6408 24.1067 83.1875 24C82.7342 23.8933 82.3566 23.7446 82.0312 23.5312C81.7059 23.3179 81.4573 23.0494 81.2812 22.7188C81.1052 22.3881 81 21.9998 81 21.5625C81 20.8265 81.2189 20.2697 81.6562 19.875C82.0936 19.4803 82.7702 19.221 83.6875 19.125L85.7812 18.9062L85.7812 18.7812C85.7812 18.4719 85.647 18.2583 85.375 18.125C85.103 17.9917 84.7307 17.9375 84.2188 17.9375C83.8134 17.9375 83.4152 17.9772 83.0312 18.0625C82.6472 18.1478 82.2781 18.247 81.9688 18.375C81.8301 18.279 81.721 18.1348 81.625 17.9375C81.529 17.7402 81.5 17.5258 81.5 17.3125C81.5 17.0352 81.5542 16.8216 81.6875 16.6562C81.8208 16.4909 82.0352 16.3361 82.3125 16.2188C82.6218 16.1014 82.9849 16.0221 83.4062 15.9688C83.8276 15.9154 84.2204 15.9063 84.5938 15.9062ZM102.281 15.9062C102.847 15.9062 103.38 15.9856 103.844 16.1562C104.308 16.3269 104.695 16.5451 105.031 16.8438C105.367 17.1424 105.626 17.5215 105.812 17.9375C105.999 18.3535 106.094 18.7906 106.094 19.2812C106.094 19.6439 105.984 19.933 105.781 20.125C105.579 20.317 105.3 20.4467 104.938 20.5L101 21.0938C101.117 21.4458 101.356 21.699 101.719 21.875C102.081 22.051 102.499 22.125 102.969 22.125C103.406 22.125 103.798 22.0807 104.188 21.9688C104.577 21.8567 104.911 21.7118 105.156 21.5625C105.327 21.6692 105.476 21.8392 105.594 22.0312C105.711 22.2233 105.75 22.4117 105.75 22.625C105.75 23.105 105.542 23.4841 105.094 23.7188C104.752 23.9001 104.364 23.9985 103.938 24.0625C103.511 24.1265 103.092 24.1563 102.719 24.1562C102.089 24.1562 101.507 24.0822 100.969 23.9062C100.43 23.7302 99.9625 23.477 99.5625 23.125C99.1625 22.773 98.8544 22.3146 98.625 21.7812C98.3957 21.2479 98.2812 20.6209 98.2812 19.9062C98.2813 19.2023 98.3957 18.6004 98.625 18.0938C98.8543 17.5871 99.1579 17.1691 99.5312 16.8438C99.9046 16.5184 100.333 16.2797 100.812 16.125C101.293 15.9703 101.78 15.9063 102.281 15.9062ZM12.9688 18.875L30.0312 18.875L30.0312 21.7188L12.9688 21.7188L12.9688 18.875ZM12.9688 23L30.0312 23L30.0312 24.75C30.0313 25.4241 29.4866 25.9688 28.8125 25.9688L14.1875 25.9688C13.5134 25.9688 12.9688 25.4241 12.9688 24.75L12.9688 23ZM24.4375 12.7812C24.1682 12.9305 23.9504 13.1623 23.8125 13.4375C23.6505 13.7608 23.892 14.1251 24.25 14.125C24.4277 14.125 24.5712 14.0447 24.6562 13.875C24.6585 13.8706 24.6851 13.8481 24.6875 13.8438C24.7372 13.7512 24.8143 13.6761 24.9062 13.625C25.1404 13.4952 25.2236 13.2029 25.0938 12.9688C24.9624 12.7321 24.6678 12.6533 24.4375 12.7812ZM68.4375 17.875C68.1815 17.875 67.9679 17.9147 67.7812 18C67.5946 18.0853 67.4298 18.2104 67.3125 18.3438C67.1952 18.4771 67.1212 18.6159 67.0625 18.7812C67.0038 18.9466 66.9794 19.1106 66.9688 19.2812L69.6875 18.8438C69.6555 18.6304 69.5464 18.4008 69.3438 18.1875C69.1411 17.9742 68.8322 17.875 68.4375 17.875ZM102.281 17.875C102.025 17.875 101.812 17.9147 101.625 18C101.438 18.0853 101.274 18.2104 101.156 18.3438C101.039 18.4771 100.965 18.6159 100.906 18.7812C100.848 18.9466 100.792 19.1106 100.781 19.2812L103.531 18.8438C103.499 18.6304 103.39 18.4008 103.188 18.1875C102.985 17.9742 102.676 17.875 102.281 17.875ZM51.9688 20.6875L50.8125 20.7812C50.5138 20.8026 50.2545 20.8621 50.0625 20.9688C49.8705 21.0754 49.7813 21.2554 49.7812 21.4688C49.7812 21.6821 49.8659 21.8354 50.0312 21.9688C50.1966 22.1021 50.4803 22.1875 50.875 22.1875C51.0563 22.1875 51.2501 22.1623 51.4688 22.125C51.6874 22.0877 51.8621 22.0328 51.9688 21.9688L51.9688 20.6875ZM85.8125 20.6875L84.6562 20.7812C84.3576 20.8026 84.0982 20.8621 83.9062 20.9688C83.7142 21.0754 83.625 21.2554 83.625 21.4688C83.625 21.6821 83.7097 21.8354 83.875 21.9688C84.0403 22.1021 84.3241 22.1875 84.7188 22.1875C84.9001 22.1875 85.0938 22.1623 85.3125 22.125C85.5312 22.0877 85.7058 22.0328 85.8125 21.9688L85.8125 20.6875Z" fill="#000000" fill-rule="nonzero" opacity="1" stroke="#000000" stroke-linecap="butt" stroke-linejoin="round" stroke-opacity="0" stroke-width="1"/>
</g>
</svg>
