<?xml version="1.0" encoding="UTF-8" standalone="no"?>
<svg
   xml:space="preserve"
   id="svg7700"
   width="800"
   height="800"
   version="1.1"
   viewBox="0 0 32 32"
   sodipodi:docname="makecake_logo.svg"
   inkscape:version="1.2.1 (9c6d41e, 2022-07-14)"
   xmlns:inkscape="http://www.inkscape.org/namespaces/inkscape"
   xmlns:sodipodi="http://sodipodi.sourceforge.net/DTD/sodipodi-0.dtd"
   xmlns:xlink="http://www.w3.org/1999/xlink"
   xmlns="http://www.w3.org/2000/svg"
   xmlns:svg="http://www.w3.org/2000/svg"><defs
   id="defs187"><linearGradient
     inkscape:collect="always"
     id="linearGradient928"><stop
       style="stop-color:#ff5a57;stop-opacity:1;"
       offset="0"
       id="stop924" /><stop
       style="stop-color:#ff8253;stop-opacity:1;"
       offset="1"
       id="stop926" /></linearGradient><linearGradient
     inkscape:collect="always"
     xlink:href="#linearGradient928"
     id="linearGradient930"
     x1="16.114719"
     y1="0.041486733"
     x2="15.521288"
     y2="31.97369"
     gradientUnits="userSpaceOnUse" /></defs><sodipodi:namedview
   id="namedview185"
   pagecolor="#505050"
   bordercolor="#ffffff"
   borderopacity="1"
   inkscape:showpageshadow="0"
   inkscape:pageopacity="0"
   inkscape:pagecheckerboard="1"
   inkscape:deskcolor="#505050"
   showgrid="false"
   inkscape:zoom="0.59"
   inkscape:cx="355.08475"
   inkscape:cy="308.47458"
   inkscape:window-width="1651"
   inkscape:window-height="874"
   inkscape:window-x="0"
   inkscape:window-y="38"
   inkscape:window-maximized="0"
   inkscape:current-layer="svg7700" />
  <path
   id="path10683"
   fill="#000"
   fill-opacity="1"
   stroke="none"
   stroke-dasharray="none"
   stroke-opacity="1"
   stroke-width="1.6"
   d="M16.044.44a15.543 15.543 0 0 0-5.363.932C2.588 4.3-1.609 13.254 1.318 21.348c2.927 8.093 11.881 12.29 19.975 9.363 8.094-2.927 12.291-11.881 9.364-19.975C28.37 4.413 22.404.468 16.044.44zm1.662 1.59a14.1 14.1 0 0 1 11.551 9.212 14.09 14.09 0 0 1 .827 5.561c-.193-1.838-.566-3.495-1.103-4.982-1.908-5.28-5.889-8.407-11.275-9.791zm-3.757.906a.881.881 0 0 1 .788.58.881.881 0 0 1-.529 1.13.881.881 0 0 1-1.128-.53.881.881 0 0 1 .529-1.128.881.881 0 0 1 .34-.052zm-4.073.844c.07-.001.14.015.207.05l1.574.816a.43.43 0 0 1 .184.582.43.43 0 0 1-.581.184l-1.575-.817a.43.43 0 0 1 .191-.815zm8.988.389a.43.43 0 0 1 .04.86l-1.767.157a.43.43 0 1 1-.076-.86l1.767-.156a.441.441 0 0 1 .036-.001zm3.105.646a.881.881 0 0 1 .788.581.881.881 0 0 1-.529 1.129.881.881 0 0 1-1.128-.53.881.881 0 0 1 .529-1.128.881.881 0 0 1 .34-.052zM8.682 6.57a.881.881 0 0 1 .789.58.881.881 0 0 1-.53 1.129.881.881 0 0 1-1.128-.529.881.881 0 0 1 .529-1.129.881.881 0 0 1 .34-.051zm4.004.45a.43.43 0 0 1 .404.28.43.43 0 0 1-.058.41l-1.06 1.422a.43.43 0 1 1-.692-.516l1.06-1.422a.43.43 0 0 1 .346-.174zm4.072.068a.881.881 0 0 1 .789.58.881.881 0 0 1-.53 1.13.881.881 0 0 1-1.128-.53.881.881 0 0 1 .53-1.128.881.881 0 0 1 .34-.052zM5.42 8.47a.43.43 0 0 1 .376.232l.823 1.571a.43.43 0 1 1-.764.4l-.823-1.57a.43.43 0 0 1 .388-.633zm16.015.437h.023a.43.43 0 0 1 .412.45l-.076 1.772a.43.43 0 1 1-.863-.037l.077-1.772a.43.43 0 0 1 .427-.413zm4.969 1.133a.881.881 0 0 1 .788.58.881.881 0 0 1-.529 1.13.881.881 0 0 1-1.128-.53.881.881 0 0 1 .529-1.128.881.881 0 0 1 .34-.052zm-10.396.656a5.347 5.347 0 0 1 1.797 10.373 5.345 5.345 0 1 1-1.797-10.373zm-6.897.082a.881.881 0 0 1 .789.581.881.881 0 0 1-.53 1.129.881.881 0 0 1-1.128-.53.881.881 0 0 1 .53-1.128.881.881 0 0 1 .34-.052zm-6.276.139C.55 20.038 6.617 31.977 21.168 29.168c-.126.05-.253.097-.381.144-7.337 2.653-15.416-1.134-18.07-8.47a14.06 14.06 0 0 1 .118-9.926zm1.578 1.627a.881.881 0 0 1 .789.581.881.881 0 0 1-.529 1.129.881.881 0 0 1-1.129-.53.881.881 0 0 1 .53-1.128.881.881 0 0 1 .34-.052zm21.547 1.185 1.774.015a.43.43 0 1 1-.008.863l-1.773-.015a.43.43 0 1 1 .007-.863zm-2.904.785a.881.881 0 0 1 .789.58.881.881 0 0 1-.53 1.13.881.881 0 0 1-1.128-.53.881.881 0 0 1 .529-1.128.881.881 0 0 1 .34-.052zm-15.88 1.733a.432.432 0 0 1 .169.03l1.65.648a.43.43 0 0 1 .244.56.43.43 0 0 1-.56.243l-1.65-.648a.43.43 0 0 1 .147-.833zm20.673 2.194a.881.881 0 0 1 .788.58.881.881 0 0 1-.529 1.129.881.881 0 0 1-1.128-.53.881.881 0 0 1 .529-1.128.881.881 0 0 1 .34-.051zm-3.608.004h.023a.43.43 0 0 1 .41.451l-.082 1.772a.43.43 0 1 1-.862-.04l.082-1.772a.43.43 0 0 1 .43-.411zm-18.96.523a.881.881 0 0 1 .79.58.881.881 0 0 1-.53 1.129.881.881 0 0 1-1.128-.529.881.881 0 0 1 .529-1.129.881.881 0 0 1 .34-.051zm6.701 2.733a.881.881 0 0 1 .789.58.881.881 0 0 1-.53 1.13.881.881 0 0 1-1.128-.53.881.881 0 0 1 .53-1.128.881.881 0 0 1 .34-.052zm7.065.436a.881.881 0 0 1 .789.58.881.881 0 0 1-.529 1.13.881.881 0 0 1-1.129-.53.881.881 0 0 1 .53-1.128.881.881 0 0 1 .34-.052zm-11.397.716a.43.43 0 0 1 .29.112l1.315 1.19a.43.43 0 1 1-.58.64l-1.314-1.19a.43.43 0 0 1 .289-.752zm7.689.295a.43.43 0 0 1 .412.37l.251 1.756a.43.43 0 1 1-.854.122l-.251-1.755a.43.43 0 0 1 .442-.493zm8.925.186a.881.881 0 0 1 .789.581.881.881 0 0 1-.53 1.129.881.881 0 0 1-1.128-.53.881.881 0 0 1 .53-1.128.881.881 0 0 1 .34-.052zm-3.052 2.138a.432.432 0 0 1 .168.037l1.622.718a.43.43 0 0 1 .22.57.43.43 0 0 1-.57.22l-1.621-.72a.43.43 0 0 1 .181-.825zm-8.126.595a.881.881 0 0 1 .79.58.881.881 0 0 1-.53 1.13.881.881 0 0 1-1.129-.53.881.881 0 0 1 .53-1.128.881.881 0 0 1 .34-.052zm6.233.647a.881.881 0 0 1 .789.58.881.881 0 0 1-.529 1.13.881.881 0 0 1-1.129-.53.881.881 0 0 1 .53-1.128.881.881 0 0 1 .34-.052z"
   style="fill-opacity:1;fill:url(#linearGradient930)" />
</svg>
